%TF.GenerationSoftware,KiCad,Pcbnew,6.0.6-3a73a75311~116~ubuntu20.04.1*%
%TF.CreationDate,2022-07-17T11:06:13-05:00*%
%TF.ProjectId,esp_ha_integrator,6573705f-6861-45f6-996e-746567726174,rev?*%
%TF.SameCoordinates,Original*%
%TF.FileFunction,Copper,L1,Top*%
%TF.FilePolarity,Positive*%
%FSLAX46Y46*%
G04 Gerber Fmt 4.6, Leading zero omitted, Abs format (unit mm)*
G04 Created by KiCad (PCBNEW 6.0.6-3a73a75311~116~ubuntu20.04.1) date 2022-07-17 11:06:13*
%MOMM*%
%LPD*%
G01*
G04 APERTURE LIST*
G04 Aperture macros list*
%AMRoundRect*
0 Rectangle with rounded corners*
0 $1 Rounding radius*
0 $2 $3 $4 $5 $6 $7 $8 $9 X,Y pos of 4 corners*
0 Add a 4 corners polygon primitive as box body*
4,1,4,$2,$3,$4,$5,$6,$7,$8,$9,$2,$3,0*
0 Add four circle primitives for the rounded corners*
1,1,$1+$1,$2,$3*
1,1,$1+$1,$4,$5*
1,1,$1+$1,$6,$7*
1,1,$1+$1,$8,$9*
0 Add four rect primitives between the rounded corners*
20,1,$1+$1,$2,$3,$4,$5,0*
20,1,$1+$1,$4,$5,$6,$7,0*
20,1,$1+$1,$6,$7,$8,$9,0*
20,1,$1+$1,$8,$9,$2,$3,0*%
G04 Aperture macros list end*
%TA.AperFunction,ComponentPad*%
%ADD10R,1.500000X1.500000*%
%TD*%
%TA.AperFunction,ComponentPad*%
%ADD11C,1.500000*%
%TD*%
%TA.AperFunction,ComponentPad*%
%ADD12RoundRect,0.250000X0.725000X-0.600000X0.725000X0.600000X-0.725000X0.600000X-0.725000X-0.600000X0*%
%TD*%
%TA.AperFunction,ComponentPad*%
%ADD13O,1.950000X1.700000*%
%TD*%
%TA.AperFunction,ComponentPad*%
%ADD14C,1.524000*%
%TD*%
%TA.AperFunction,ComponentPad*%
%ADD15R,1.050000X1.500000*%
%TD*%
%TA.AperFunction,ComponentPad*%
%ADD16O,1.050000X1.500000*%
%TD*%
%TA.AperFunction,ComponentPad*%
%ADD17C,1.600000*%
%TD*%
%TA.AperFunction,ComponentPad*%
%ADD18O,1.600000X1.600000*%
%TD*%
%TA.AperFunction,ComponentPad*%
%ADD19R,1.200000X1.200000*%
%TD*%
%TA.AperFunction,ComponentPad*%
%ADD20C,1.200000*%
%TD*%
%TA.AperFunction,ComponentPad*%
%ADD21R,2.000000X2.000000*%
%TD*%
%TA.AperFunction,ComponentPad*%
%ADD22C,2.000000*%
%TD*%
%TA.AperFunction,SMDPad,CuDef*%
%ADD23R,2.000000X1.500000*%
%TD*%
%TA.AperFunction,SMDPad,CuDef*%
%ADD24R,2.000000X3.800000*%
%TD*%
%TA.AperFunction,Conductor*%
%ADD25C,0.400000*%
%TD*%
G04 APERTURE END LIST*
D10*
%TO.P,U1,1,GND*%
%TO.N,GND*%
X119155000Y-97300000D03*
D11*
%TO.P,U1,2,IO2*%
%TO.N,DataLow*%
X121695000Y-97300000D03*
%TO.P,U1,3,IO0*%
%TO.N,unconnected-(U1-Pad3)*%
X124235000Y-97300000D03*
%TO.P,U1,4,RXD*%
%TO.N,unconnected-(U1-Pad4)*%
X126775000Y-97300000D03*
%TO.P,U1,5,TXD*%
%TO.N,unconnected-(U1-Pad5)*%
X119155000Y-99840000D03*
%TO.P,U1,6,EN*%
%TO.N,unconnected-(U1-Pad6)*%
X121695000Y-99840000D03*
%TO.P,U1,7,~{RST}*%
%TO.N,unconnected-(U1-Pad7)*%
X124235000Y-99840000D03*
%TO.P,U1,8,VCC*%
%TO.N,+3V3*%
X126775000Y-99840000D03*
%TD*%
D12*
%TO.P,J2,1,Pin_1*%
%TO.N,+5V*%
X169270000Y-83780000D03*
D13*
%TO.P,J2,2,Pin_2*%
%TO.N,DataHigh*%
X169270000Y-81280000D03*
%TO.P,J2,3,Pin_3*%
%TO.N,GND*%
X169270000Y-78780000D03*
%TD*%
D14*
%TO.P,J1,1,Pin_1*%
%TO.N,GND*%
X170180000Y-95240000D03*
%TO.P,J1,2,Pin_2*%
%TO.N,+5V*%
X170180000Y-92720000D03*
%TD*%
D15*
%TO.P,Q1,1,S*%
%TO.N,DataLow*%
X139700000Y-81280000D03*
D16*
%TO.P,Q1,2,G*%
%TO.N,+3V3*%
X140970000Y-81280000D03*
%TO.P,Q1,3,D*%
%TO.N,DataHigh*%
X142240000Y-81280000D03*
%TD*%
D17*
%TO.P,R2,1*%
%TO.N,+5V*%
X149860000Y-88900000D03*
D18*
%TO.P,R2,2*%
%TO.N,DataHigh*%
X149860000Y-78740000D03*
%TD*%
D19*
%TO.P,C3,1*%
%TO.N,+5V*%
X144780000Y-96520000D03*
D20*
%TO.P,C3,2*%
%TO.N,GND*%
X144780000Y-94520000D03*
%TD*%
D17*
%TO.P,C1,1*%
%TO.N,+3V3*%
X137120000Y-88900000D03*
%TO.P,C1,2*%
%TO.N,GND*%
X137120000Y-86400000D03*
%TD*%
D19*
%TO.P,C2,1*%
%TO.N,+3V3*%
X142240000Y-88900000D03*
D20*
%TO.P,C2,2*%
%TO.N,GND*%
X142240000Y-86900000D03*
%TD*%
D21*
%TO.P,C4,1*%
%TO.N,+5V*%
X160020000Y-86360000D03*
D22*
%TO.P,C4,2*%
%TO.N,GND*%
X160020000Y-82560000D03*
%TD*%
D17*
%TO.P,R1,1*%
%TO.N,+3V3*%
X132080000Y-88900000D03*
D18*
%TO.P,R1,2*%
%TO.N,DataLow*%
X132080000Y-78740000D03*
%TD*%
D23*
%TO.P,U2,1,GND*%
%TO.N,GND*%
X133400000Y-94220000D03*
%TO.P,U2,2,VO*%
%TO.N,+3V3*%
X133400000Y-96520000D03*
D24*
X139700000Y-96520000D03*
D23*
%TO.P,U2,3,VI*%
%TO.N,+5V*%
X133400000Y-98820000D03*
%TD*%
D25*
%TO.N,+3V3*%
X137120000Y-88900000D02*
X132080000Y-88900000D01*
X140970000Y-82550000D02*
X140970000Y-87630000D01*
X128760000Y-99840000D02*
X126775000Y-99840000D01*
X132080000Y-96520000D02*
X128760000Y-99840000D01*
X142240000Y-88900000D02*
X137120000Y-88900000D01*
X142240000Y-93980000D02*
X139700000Y-96520000D01*
X142240000Y-88900000D02*
X142240000Y-93980000D01*
X140970000Y-81280000D02*
X140970000Y-82550000D01*
X140970000Y-87630000D02*
X142240000Y-88900000D01*
X133400000Y-96520000D02*
X132080000Y-96520000D01*
%TO.N,GND*%
X118346000Y-97300000D02*
X117094000Y-98552000D01*
X137922000Y-100330000D02*
X141478000Y-100330000D01*
X142240000Y-95631000D02*
X143351000Y-94520000D01*
X134098000Y-94220000D02*
X136398000Y-96520000D01*
X117094000Y-98552000D02*
X117094000Y-101854000D01*
X117856000Y-102616000D02*
X162804000Y-102616000D01*
X133400000Y-94220000D02*
X134098000Y-94220000D01*
X143351000Y-94520000D02*
X144780000Y-94520000D01*
X136398000Y-96520000D02*
X136398000Y-98806000D01*
X141478000Y-100330000D02*
X142240000Y-99568000D01*
X142240000Y-86900000D02*
X142780000Y-86900000D01*
X117094000Y-101854000D02*
X117856000Y-102616000D01*
X136398000Y-98806000D02*
X137922000Y-100330000D01*
X119155000Y-97300000D02*
X118346000Y-97300000D01*
X142240000Y-99568000D02*
X142240000Y-95631000D01*
X162804000Y-102616000D02*
X170180000Y-95240000D01*
%TO.N,DataHigh*%
X142240000Y-81280000D02*
X144780000Y-81280000D01*
X167640000Y-81280000D02*
X165100000Y-78740000D01*
X165100000Y-78740000D02*
X149860000Y-78740000D01*
X169270000Y-81280000D02*
X167640000Y-81280000D01*
X147320000Y-78740000D02*
X149860000Y-78740000D01*
X144780000Y-81280000D02*
X147320000Y-78740000D01*
%TO.N,DataLow*%
X131064000Y-84328000D02*
X131826000Y-84328000D01*
X132080000Y-84074000D02*
X132080000Y-78740000D01*
X139700000Y-81280000D02*
X137160000Y-78740000D01*
X131826000Y-84328000D02*
X132080000Y-84074000D01*
X137160000Y-78740000D02*
X132080000Y-78740000D01*
X121695000Y-93697000D02*
X131064000Y-84328000D01*
X121695000Y-97300000D02*
X121695000Y-93697000D01*
%TO.N,+5V*%
X166690000Y-86360000D02*
X160020000Y-86360000D01*
X169270000Y-83780000D02*
X170180000Y-84690000D01*
X169270000Y-83780000D02*
X166690000Y-86360000D01*
X146304000Y-96520000D02*
X148336000Y-94488000D01*
X154940000Y-86360000D02*
X160020000Y-86360000D01*
X152400000Y-88900000D02*
X154940000Y-86360000D01*
X170180000Y-84690000D02*
X170180000Y-92720000D01*
X144780000Y-96520000D02*
X146304000Y-96520000D01*
X149860000Y-88900000D02*
X152400000Y-88900000D01*
X144780000Y-99060000D02*
X142240000Y-101600000D01*
X144780000Y-96520000D02*
X144780000Y-99060000D01*
X134620000Y-101600000D02*
X133400000Y-100380000D01*
X148336000Y-90424000D02*
X149860000Y-88900000D01*
X133400000Y-100380000D02*
X133400000Y-98820000D01*
X142240000Y-101600000D02*
X134620000Y-101600000D01*
X148336000Y-94488000D02*
X148336000Y-90424000D01*
%TD*%
M02*
