%TF.GenerationSoftware,KiCad,Pcbnew,6.0.6-3a73a75311~116~ubuntu20.04.1*%
%TF.CreationDate,2022-07-17T11:06:13-05:00*%
%TF.ProjectId,esp_ha_integrator,6573705f-6861-45f6-996e-746567726174,rev?*%
%TF.SameCoordinates,Original*%
%TF.FileFunction,Copper,L2,Bot*%
%TF.FilePolarity,Positive*%
%FSLAX46Y46*%
G04 Gerber Fmt 4.6, Leading zero omitted, Abs format (unit mm)*
G04 Created by KiCad (PCBNEW 6.0.6-3a73a75311~116~ubuntu20.04.1) date 2022-07-17 11:06:13*
%MOMM*%
%LPD*%
G01*
G04 APERTURE LIST*
G04 Aperture macros list*
%AMRoundRect*
0 Rectangle with rounded corners*
0 $1 Rounding radius*
0 $2 $3 $4 $5 $6 $7 $8 $9 X,Y pos of 4 corners*
0 Add a 4 corners polygon primitive as box body*
4,1,4,$2,$3,$4,$5,$6,$7,$8,$9,$2,$3,0*
0 Add four circle primitives for the rounded corners*
1,1,$1+$1,$2,$3*
1,1,$1+$1,$4,$5*
1,1,$1+$1,$6,$7*
1,1,$1+$1,$8,$9*
0 Add four rect primitives between the rounded corners*
20,1,$1+$1,$2,$3,$4,$5,0*
20,1,$1+$1,$4,$5,$6,$7,0*
20,1,$1+$1,$6,$7,$8,$9,0*
20,1,$1+$1,$8,$9,$2,$3,0*%
G04 Aperture macros list end*
%TA.AperFunction,ComponentPad*%
%ADD10R,1.500000X1.500000*%
%TD*%
%TA.AperFunction,ComponentPad*%
%ADD11C,1.500000*%
%TD*%
%TA.AperFunction,ComponentPad*%
%ADD12RoundRect,0.250000X0.725000X-0.600000X0.725000X0.600000X-0.725000X0.600000X-0.725000X-0.600000X0*%
%TD*%
%TA.AperFunction,ComponentPad*%
%ADD13O,1.950000X1.700000*%
%TD*%
%TA.AperFunction,ComponentPad*%
%ADD14C,1.524000*%
%TD*%
%TA.AperFunction,ComponentPad*%
%ADD15R,1.050000X1.500000*%
%TD*%
%TA.AperFunction,ComponentPad*%
%ADD16O,1.050000X1.500000*%
%TD*%
%TA.AperFunction,ComponentPad*%
%ADD17C,1.600000*%
%TD*%
%TA.AperFunction,ComponentPad*%
%ADD18O,1.600000X1.600000*%
%TD*%
%TA.AperFunction,ComponentPad*%
%ADD19R,1.200000X1.200000*%
%TD*%
%TA.AperFunction,ComponentPad*%
%ADD20C,1.200000*%
%TD*%
%TA.AperFunction,ComponentPad*%
%ADD21R,2.000000X2.000000*%
%TD*%
%TA.AperFunction,ComponentPad*%
%ADD22C,2.000000*%
%TD*%
G04 APERTURE END LIST*
D10*
%TO.P,U1,1,GND*%
%TO.N,GND*%
X119155000Y-97300000D03*
D11*
%TO.P,U1,2,IO2*%
%TO.N,DataLow*%
X121695000Y-97300000D03*
%TO.P,U1,3,IO0*%
%TO.N,unconnected-(U1-Pad3)*%
X124235000Y-97300000D03*
%TO.P,U1,4,RXD*%
%TO.N,unconnected-(U1-Pad4)*%
X126775000Y-97300000D03*
%TO.P,U1,5,TXD*%
%TO.N,unconnected-(U1-Pad5)*%
X119155000Y-99840000D03*
%TO.P,U1,6,EN*%
%TO.N,unconnected-(U1-Pad6)*%
X121695000Y-99840000D03*
%TO.P,U1,7,~{RST}*%
%TO.N,unconnected-(U1-Pad7)*%
X124235000Y-99840000D03*
%TO.P,U1,8,VCC*%
%TO.N,+3V3*%
X126775000Y-99840000D03*
%TD*%
D12*
%TO.P,J2,1,Pin_1*%
%TO.N,+5V*%
X169270000Y-83780000D03*
D13*
%TO.P,J2,2,Pin_2*%
%TO.N,DataHigh*%
X169270000Y-81280000D03*
%TO.P,J2,3,Pin_3*%
%TO.N,GND*%
X169270000Y-78780000D03*
%TD*%
D14*
%TO.P,J1,1,Pin_1*%
%TO.N,GND*%
X170180000Y-95240000D03*
%TO.P,J1,2,Pin_2*%
%TO.N,+5V*%
X170180000Y-92720000D03*
%TD*%
D15*
%TO.P,Q1,1,S*%
%TO.N,DataLow*%
X139700000Y-81280000D03*
D16*
%TO.P,Q1,2,G*%
%TO.N,+3V3*%
X140970000Y-81280000D03*
%TO.P,Q1,3,D*%
%TO.N,DataHigh*%
X142240000Y-81280000D03*
%TD*%
D17*
%TO.P,R2,1*%
%TO.N,+5V*%
X149860000Y-88900000D03*
D18*
%TO.P,R2,2*%
%TO.N,DataHigh*%
X149860000Y-78740000D03*
%TD*%
D19*
%TO.P,C3,1*%
%TO.N,+5V*%
X144780000Y-96520000D03*
D20*
%TO.P,C3,2*%
%TO.N,GND*%
X144780000Y-94520000D03*
%TD*%
D17*
%TO.P,C1,1*%
%TO.N,+3V3*%
X137120000Y-88900000D03*
%TO.P,C1,2*%
%TO.N,GND*%
X137120000Y-86400000D03*
%TD*%
D19*
%TO.P,C2,1*%
%TO.N,+3V3*%
X142240000Y-88900000D03*
D20*
%TO.P,C2,2*%
%TO.N,GND*%
X142240000Y-86900000D03*
%TD*%
D21*
%TO.P,C4,1*%
%TO.N,+5V*%
X160020000Y-86360000D03*
D22*
%TO.P,C4,2*%
%TO.N,GND*%
X160020000Y-82560000D03*
%TD*%
D17*
%TO.P,R1,1*%
%TO.N,+3V3*%
X132080000Y-88900000D03*
D18*
%TO.P,R1,2*%
%TO.N,DataLow*%
X132080000Y-78740000D03*
%TD*%
%TA.AperFunction,Conductor*%
%TO.N,GND*%
G36*
X179718843Y-74188207D02*
G01*
X179788084Y-74243426D01*
X179826511Y-74323218D01*
X179831500Y-74367500D01*
X179831500Y-103432500D01*
X179811793Y-103518843D01*
X179756574Y-103588084D01*
X179676782Y-103626511D01*
X179632500Y-103631500D01*
X112467500Y-103631500D01*
X112381157Y-103611793D01*
X112311916Y-103556574D01*
X112273489Y-103476782D01*
X112268500Y-103432500D01*
X112268500Y-99840000D01*
X117891693Y-99840000D01*
X117910885Y-100059371D01*
X117913133Y-100067759D01*
X117965631Y-100263685D01*
X117965633Y-100263691D01*
X117967880Y-100272076D01*
X118060944Y-100471653D01*
X118187251Y-100652038D01*
X118342962Y-100807749D01*
X118523346Y-100934056D01*
X118722924Y-101027120D01*
X118731312Y-101029367D01*
X118731313Y-101029368D01*
X118781377Y-101042783D01*
X118935629Y-101084115D01*
X118944274Y-101084871D01*
X118944278Y-101084872D01*
X119146347Y-101102550D01*
X119155000Y-101103307D01*
X119163653Y-101102550D01*
X119365722Y-101084872D01*
X119365726Y-101084871D01*
X119374371Y-101084115D01*
X119528623Y-101042783D01*
X119578687Y-101029368D01*
X119578688Y-101029367D01*
X119587076Y-101027120D01*
X119786654Y-100934056D01*
X119967038Y-100807749D01*
X120122749Y-100652038D01*
X120249056Y-100471653D01*
X120252687Y-100463866D01*
X120312898Y-100398973D01*
X120395339Y-100366617D01*
X120483655Y-100373235D01*
X120560353Y-100417516D01*
X120597307Y-100463854D01*
X120600944Y-100471653D01*
X120727251Y-100652038D01*
X120882962Y-100807749D01*
X121063346Y-100934056D01*
X121262924Y-101027120D01*
X121271312Y-101029367D01*
X121271313Y-101029368D01*
X121321377Y-101042783D01*
X121475629Y-101084115D01*
X121484274Y-101084871D01*
X121484278Y-101084872D01*
X121686347Y-101102550D01*
X121695000Y-101103307D01*
X121703653Y-101102550D01*
X121905722Y-101084872D01*
X121905726Y-101084871D01*
X121914371Y-101084115D01*
X122068623Y-101042783D01*
X122118687Y-101029368D01*
X122118688Y-101029367D01*
X122127076Y-101027120D01*
X122326654Y-100934056D01*
X122507038Y-100807749D01*
X122662749Y-100652038D01*
X122789056Y-100471653D01*
X122792687Y-100463866D01*
X122852898Y-100398973D01*
X122935339Y-100366617D01*
X123023655Y-100373235D01*
X123100353Y-100417516D01*
X123137307Y-100463854D01*
X123140944Y-100471653D01*
X123267251Y-100652038D01*
X123422962Y-100807749D01*
X123603346Y-100934056D01*
X123802924Y-101027120D01*
X123811312Y-101029367D01*
X123811313Y-101029368D01*
X123861377Y-101042783D01*
X124015629Y-101084115D01*
X124024274Y-101084871D01*
X124024278Y-101084872D01*
X124226347Y-101102550D01*
X124235000Y-101103307D01*
X124243653Y-101102550D01*
X124445722Y-101084872D01*
X124445726Y-101084871D01*
X124454371Y-101084115D01*
X124608623Y-101042783D01*
X124658687Y-101029368D01*
X124658688Y-101029367D01*
X124667076Y-101027120D01*
X124866654Y-100934056D01*
X125047038Y-100807749D01*
X125202749Y-100652038D01*
X125329056Y-100471653D01*
X125332687Y-100463866D01*
X125392898Y-100398973D01*
X125475339Y-100366617D01*
X125563655Y-100373235D01*
X125640353Y-100417516D01*
X125677307Y-100463854D01*
X125680944Y-100471653D01*
X125807251Y-100652038D01*
X125962962Y-100807749D01*
X126143346Y-100934056D01*
X126342924Y-101027120D01*
X126351312Y-101029367D01*
X126351313Y-101029368D01*
X126401377Y-101042783D01*
X126555629Y-101084115D01*
X126564274Y-101084871D01*
X126564278Y-101084872D01*
X126766347Y-101102550D01*
X126775000Y-101103307D01*
X126783653Y-101102550D01*
X126985722Y-101084872D01*
X126985726Y-101084871D01*
X126994371Y-101084115D01*
X127148623Y-101042783D01*
X127198687Y-101029368D01*
X127198688Y-101029367D01*
X127207076Y-101027120D01*
X127406654Y-100934056D01*
X127587038Y-100807749D01*
X127742749Y-100652038D01*
X127869056Y-100471653D01*
X127962120Y-100272076D01*
X127964367Y-100263691D01*
X127964369Y-100263685D01*
X128016867Y-100067759D01*
X128019115Y-100059371D01*
X128038307Y-99840000D01*
X128019115Y-99620629D01*
X127995705Y-99533263D01*
X127964369Y-99416315D01*
X127964367Y-99416309D01*
X127962120Y-99407924D01*
X127869056Y-99208347D01*
X127742749Y-99027962D01*
X127587038Y-98872251D01*
X127406654Y-98745944D01*
X127398867Y-98742313D01*
X127333973Y-98682099D01*
X127301618Y-98599657D01*
X127308238Y-98511341D01*
X127352520Y-98434644D01*
X127398856Y-98397692D01*
X127406654Y-98394056D01*
X127587038Y-98267749D01*
X127742749Y-98112038D01*
X127869056Y-97931653D01*
X127962120Y-97732076D01*
X127964367Y-97723691D01*
X127964369Y-97723685D01*
X128005384Y-97570615D01*
X128019115Y-97519371D01*
X128021531Y-97491762D01*
X128037550Y-97308653D01*
X128038307Y-97300000D01*
X128037550Y-97291347D01*
X128019872Y-97089278D01*
X128019871Y-97089274D01*
X128019115Y-97080629D01*
X127995705Y-96993263D01*
X127964369Y-96876315D01*
X127964367Y-96876309D01*
X127962120Y-96867924D01*
X127869056Y-96668347D01*
X127742749Y-96487962D01*
X127587038Y-96332251D01*
X127406654Y-96205944D01*
X127207076Y-96112880D01*
X127198688Y-96110633D01*
X127198687Y-96110632D01*
X127139799Y-96094853D01*
X126994371Y-96055885D01*
X126985726Y-96055129D01*
X126985722Y-96055128D01*
X126783653Y-96037450D01*
X126775000Y-96036693D01*
X126766347Y-96037450D01*
X126564278Y-96055128D01*
X126564274Y-96055129D01*
X126555629Y-96055885D01*
X126468263Y-96079295D01*
X126351315Y-96110631D01*
X126351309Y-96110633D01*
X126342924Y-96112880D01*
X126143347Y-96205944D01*
X125962962Y-96332251D01*
X125807251Y-96487962D01*
X125680944Y-96668347D01*
X125677313Y-96676134D01*
X125617102Y-96741027D01*
X125534661Y-96773383D01*
X125446345Y-96766765D01*
X125369647Y-96722484D01*
X125332693Y-96676146D01*
X125329056Y-96668347D01*
X125202749Y-96487962D01*
X125047038Y-96332251D01*
X124866654Y-96205944D01*
X124667076Y-96112880D01*
X124658688Y-96110633D01*
X124658687Y-96110632D01*
X124599799Y-96094853D01*
X124454371Y-96055885D01*
X124445726Y-96055129D01*
X124445722Y-96055128D01*
X124243653Y-96037450D01*
X124235000Y-96036693D01*
X124226347Y-96037450D01*
X124024278Y-96055128D01*
X124024274Y-96055129D01*
X124015629Y-96055885D01*
X123928263Y-96079295D01*
X123811315Y-96110631D01*
X123811309Y-96110633D01*
X123802924Y-96112880D01*
X123603347Y-96205944D01*
X123422962Y-96332251D01*
X123267251Y-96487962D01*
X123140944Y-96668347D01*
X123137313Y-96676134D01*
X123077102Y-96741027D01*
X122994661Y-96773383D01*
X122906345Y-96766765D01*
X122829647Y-96722484D01*
X122792693Y-96676146D01*
X122789056Y-96668347D01*
X122662749Y-96487962D01*
X122507038Y-96332251D01*
X122326654Y-96205944D01*
X122127076Y-96112880D01*
X122118688Y-96110633D01*
X122118687Y-96110632D01*
X122059799Y-96094853D01*
X121914371Y-96055885D01*
X121905726Y-96055129D01*
X121905722Y-96055128D01*
X121703653Y-96037450D01*
X121695000Y-96036693D01*
X121686347Y-96037450D01*
X121484278Y-96055128D01*
X121484274Y-96055129D01*
X121475629Y-96055885D01*
X121388263Y-96079295D01*
X121271315Y-96110631D01*
X121271309Y-96110633D01*
X121262924Y-96112880D01*
X121063347Y-96205944D01*
X120882962Y-96332251D01*
X120727251Y-96487962D01*
X120725439Y-96486150D01*
X120666722Y-96530644D01*
X120579918Y-96548209D01*
X120494089Y-96526372D01*
X120426235Y-96469457D01*
X120398505Y-96419125D01*
X120360150Y-96316815D01*
X120346672Y-96292196D01*
X120276405Y-96198439D01*
X120256561Y-96178595D01*
X120162804Y-96108328D01*
X120138191Y-96094853D01*
X120026887Y-96053127D01*
X120002804Y-96047401D01*
X119958449Y-96042582D01*
X119947699Y-96042000D01*
X119431423Y-96042000D01*
X119412453Y-96046330D01*
X119409000Y-96053500D01*
X119409000Y-97355000D01*
X119389293Y-97441343D01*
X119334074Y-97510584D01*
X119254282Y-97549011D01*
X119210000Y-97554000D01*
X117919424Y-97554000D01*
X117900454Y-97558330D01*
X117897001Y-97565500D01*
X117897001Y-98092696D01*
X117897584Y-98103453D01*
X117902400Y-98147799D01*
X117908128Y-98171890D01*
X117949853Y-98283191D01*
X117963328Y-98307804D01*
X118033595Y-98401561D01*
X118053439Y-98421405D01*
X118147196Y-98491672D01*
X118171815Y-98505150D01*
X118274125Y-98543505D01*
X118348056Y-98592267D01*
X118393508Y-98668277D01*
X118401479Y-98756481D01*
X118370390Y-98839408D01*
X118341988Y-98871277D01*
X118342962Y-98872251D01*
X118187251Y-99027962D01*
X118060944Y-99208347D01*
X117967880Y-99407924D01*
X117965633Y-99416309D01*
X117965631Y-99416315D01*
X117934295Y-99533263D01*
X117910885Y-99620629D01*
X117891693Y-99840000D01*
X112268500Y-99840000D01*
X112268500Y-97023577D01*
X117897000Y-97023577D01*
X117901330Y-97042547D01*
X117908500Y-97046000D01*
X118878577Y-97046000D01*
X118897547Y-97041670D01*
X118901000Y-97034500D01*
X118901000Y-96064424D01*
X118896670Y-96045454D01*
X118889500Y-96042001D01*
X118362304Y-96042001D01*
X118351547Y-96042584D01*
X118307201Y-96047400D01*
X118283110Y-96053128D01*
X118171809Y-96094853D01*
X118147196Y-96108328D01*
X118053439Y-96178595D01*
X118033595Y-96198439D01*
X117963328Y-96292196D01*
X117949853Y-96316809D01*
X117908127Y-96428113D01*
X117902401Y-96452196D01*
X117897582Y-96496551D01*
X117897000Y-96507301D01*
X117897000Y-97023577D01*
X112268500Y-97023577D01*
X112268500Y-94499976D01*
X143668231Y-94499976D01*
X143680356Y-94684969D01*
X143683199Y-94702914D01*
X143728833Y-94882601D01*
X143734900Y-94899731D01*
X143812509Y-95068079D01*
X143821601Y-95083828D01*
X143926722Y-95232570D01*
X143960460Y-95314455D01*
X143955329Y-95402870D01*
X143912344Y-95480302D01*
X143883555Y-95506663D01*
X143816739Y-95556739D01*
X143729385Y-95673295D01*
X143678255Y-95809684D01*
X143671500Y-95871866D01*
X143671500Y-97168134D01*
X143678255Y-97230316D01*
X143729385Y-97366705D01*
X143816739Y-97483261D01*
X143933295Y-97570615D01*
X144069684Y-97621745D01*
X144107760Y-97625881D01*
X144126506Y-97627918D01*
X144126511Y-97627918D01*
X144131866Y-97628500D01*
X145428134Y-97628500D01*
X145433489Y-97627918D01*
X145433494Y-97627918D01*
X145452240Y-97625881D01*
X145490316Y-97621745D01*
X145626705Y-97570615D01*
X145743261Y-97483261D01*
X145830615Y-97366705D01*
X145881745Y-97230316D01*
X145888500Y-97168134D01*
X145888500Y-96300097D01*
X169485110Y-96300097D01*
X169495707Y-96311237D01*
X169535456Y-96339069D01*
X169550452Y-96347726D01*
X169736096Y-96434294D01*
X169752372Y-96440218D01*
X169950233Y-96493235D01*
X169967276Y-96496240D01*
X170171347Y-96514094D01*
X170188653Y-96514094D01*
X170392724Y-96496240D01*
X170409767Y-96493235D01*
X170607628Y-96440218D01*
X170623904Y-96434294D01*
X170809548Y-96347726D01*
X170824544Y-96339069D01*
X170862238Y-96312675D01*
X170875026Y-96298544D01*
X170866524Y-96285734D01*
X170195855Y-95615065D01*
X170179380Y-95604713D01*
X170171869Y-95607341D01*
X169495250Y-96283960D01*
X169485110Y-96300097D01*
X145888500Y-96300097D01*
X145888500Y-95871866D01*
X145881745Y-95809684D01*
X145830615Y-95673295D01*
X145743261Y-95556739D01*
X145626705Y-95469385D01*
X145625065Y-95468770D01*
X145585731Y-95433900D01*
X145514253Y-95425046D01*
X145514140Y-95425521D01*
X145509850Y-95424501D01*
X145505563Y-95423970D01*
X145502002Y-95422635D01*
X145501996Y-95422633D01*
X145490316Y-95418255D01*
X145452240Y-95414119D01*
X145433494Y-95412082D01*
X145433489Y-95412082D01*
X145428134Y-95411500D01*
X145394717Y-95411500D01*
X145308374Y-95391793D01*
X145254003Y-95353214D01*
X145149442Y-95248653D01*
X168905906Y-95248653D01*
X168923760Y-95452724D01*
X168926765Y-95469767D01*
X168979784Y-95667637D01*
X168985701Y-95683894D01*
X169072278Y-95869556D01*
X169080926Y-95884536D01*
X169107325Y-95922239D01*
X169121455Y-95935025D01*
X169134269Y-95926521D01*
X169804935Y-95255855D01*
X169814508Y-95240620D01*
X170544713Y-95240620D01*
X170547341Y-95248131D01*
X171223960Y-95924750D01*
X171240097Y-95934890D01*
X171251236Y-95924294D01*
X171279074Y-95884536D01*
X171287722Y-95869556D01*
X171374299Y-95683894D01*
X171380216Y-95667637D01*
X171433235Y-95469767D01*
X171436240Y-95452724D01*
X171454094Y-95248653D01*
X171454094Y-95231347D01*
X171436240Y-95027276D01*
X171433235Y-95010233D01*
X171380216Y-94812363D01*
X171374299Y-94796106D01*
X171287722Y-94610444D01*
X171279074Y-94595464D01*
X171252675Y-94557761D01*
X171238545Y-94544975D01*
X171225731Y-94553479D01*
X170555065Y-95224145D01*
X170544713Y-95240620D01*
X169814508Y-95240620D01*
X169815287Y-95239380D01*
X169812659Y-95231869D01*
X169136040Y-94555250D01*
X169119903Y-94545110D01*
X169108764Y-94555706D01*
X169080926Y-94595464D01*
X169072278Y-94610444D01*
X168985701Y-94796106D01*
X168979784Y-94812363D01*
X168926765Y-95010233D01*
X168923760Y-95027276D01*
X168905906Y-95231347D01*
X168905906Y-95248653D01*
X145149442Y-95248653D01*
X144421410Y-94520620D01*
X145144713Y-94520620D01*
X145147341Y-94528131D01*
X145716130Y-95096919D01*
X145718217Y-95100240D01*
X145720325Y-95099502D01*
X145732028Y-95087799D01*
X145792089Y-94980552D01*
X145799476Y-94963960D01*
X145859071Y-94788401D01*
X145863310Y-94770743D01*
X145890382Y-94584030D01*
X145891375Y-94572384D01*
X145892594Y-94525853D01*
X145892211Y-94514167D01*
X145874949Y-94326303D01*
X145871638Y-94308440D01*
X145821313Y-94130001D01*
X145814807Y-94113051D01*
X145732895Y-93946949D01*
X145723883Y-93939280D01*
X145723253Y-93939403D01*
X145712287Y-93946923D01*
X145155065Y-94504145D01*
X145144713Y-94520620D01*
X144421410Y-94520620D01*
X144420790Y-94520000D01*
X143851585Y-93950796D01*
X143836445Y-93941282D01*
X143827896Y-93949831D01*
X143756201Y-94086102D01*
X143749252Y-94102877D01*
X143694274Y-94279936D01*
X143690497Y-94297704D01*
X143668706Y-94481814D01*
X143668231Y-94499976D01*
X112268500Y-94499976D01*
X112268500Y-93578050D01*
X144203584Y-93578050D01*
X144213539Y-93594328D01*
X144764145Y-94144935D01*
X144780620Y-94155287D01*
X144788131Y-94152659D01*
X145347237Y-93593552D01*
X145356776Y-93578371D01*
X145344211Y-93565783D01*
X145292890Y-93533402D01*
X145276706Y-93525155D01*
X145104508Y-93456456D01*
X145087091Y-93451297D01*
X144905268Y-93415130D01*
X144887187Y-93413230D01*
X144701819Y-93410802D01*
X144683704Y-93412228D01*
X144500984Y-93443625D01*
X144483445Y-93448325D01*
X144309514Y-93512492D01*
X144293104Y-93520319D01*
X144216089Y-93566139D01*
X144203584Y-93578050D01*
X112268500Y-93578050D01*
X112268500Y-92720000D01*
X168904647Y-92720000D01*
X168924022Y-92941463D01*
X168981560Y-93156196D01*
X169075512Y-93357676D01*
X169203023Y-93539781D01*
X169360219Y-93696977D01*
X169532049Y-93817294D01*
X169591473Y-93882961D01*
X169616521Y-93967909D01*
X169602230Y-94055312D01*
X169551432Y-94127859D01*
X169532048Y-94143317D01*
X169497763Y-94167324D01*
X169484975Y-94181455D01*
X169493479Y-94194269D01*
X170164145Y-94864935D01*
X170180620Y-94875287D01*
X170188131Y-94872659D01*
X170864750Y-94196040D01*
X170874890Y-94179903D01*
X170864292Y-94168762D01*
X170827951Y-94143316D01*
X170768527Y-94077649D01*
X170743479Y-93992701D01*
X170757770Y-93905299D01*
X170808568Y-93832752D01*
X170827951Y-93817294D01*
X170999781Y-93696977D01*
X171156977Y-93539781D01*
X171284488Y-93357676D01*
X171378440Y-93156196D01*
X171435978Y-92941463D01*
X171455353Y-92720000D01*
X171435978Y-92498537D01*
X171378440Y-92283804D01*
X171284488Y-92082324D01*
X171156977Y-91900219D01*
X170999781Y-91743023D01*
X170817677Y-91615512D01*
X170616196Y-91521560D01*
X170607799Y-91519310D01*
X170409854Y-91466270D01*
X170409850Y-91466269D01*
X170401463Y-91464022D01*
X170392814Y-91463265D01*
X170392812Y-91463265D01*
X170188653Y-91445404D01*
X170180000Y-91444647D01*
X170171347Y-91445404D01*
X169967188Y-91463265D01*
X169967186Y-91463265D01*
X169958537Y-91464022D01*
X169950150Y-91466269D01*
X169950146Y-91466270D01*
X169752201Y-91519310D01*
X169743804Y-91521560D01*
X169542324Y-91615512D01*
X169360219Y-91743023D01*
X169203023Y-91900219D01*
X169075512Y-92082324D01*
X168981560Y-92283804D01*
X168924022Y-92498537D01*
X168904647Y-92720000D01*
X112268500Y-92720000D01*
X112268500Y-88900000D01*
X130766502Y-88900000D01*
X130786457Y-89128087D01*
X130845716Y-89349243D01*
X130942477Y-89556749D01*
X131073802Y-89744300D01*
X131235700Y-89906198D01*
X131423251Y-90037523D01*
X131630757Y-90134284D01*
X131639154Y-90136534D01*
X131843522Y-90191295D01*
X131843526Y-90191296D01*
X131851913Y-90193543D01*
X131860564Y-90194300D01*
X131860565Y-90194300D01*
X132071347Y-90212741D01*
X132080000Y-90213498D01*
X132088653Y-90212741D01*
X132299435Y-90194300D01*
X132299436Y-90194300D01*
X132308087Y-90193543D01*
X132316474Y-90191296D01*
X132316478Y-90191295D01*
X132520846Y-90136534D01*
X132529243Y-90134284D01*
X132736749Y-90037523D01*
X132924300Y-89906198D01*
X133086198Y-89744300D01*
X133217523Y-89556749D01*
X133314284Y-89349243D01*
X133373543Y-89128087D01*
X133393498Y-88900000D01*
X135806502Y-88900000D01*
X135826457Y-89128087D01*
X135885716Y-89349243D01*
X135982477Y-89556749D01*
X136113802Y-89744300D01*
X136275700Y-89906198D01*
X136463251Y-90037523D01*
X136670757Y-90134284D01*
X136679154Y-90136534D01*
X136883522Y-90191295D01*
X136883526Y-90191296D01*
X136891913Y-90193543D01*
X136900564Y-90194300D01*
X136900565Y-90194300D01*
X137111347Y-90212741D01*
X137120000Y-90213498D01*
X137128653Y-90212741D01*
X137339435Y-90194300D01*
X137339436Y-90194300D01*
X137348087Y-90193543D01*
X137356474Y-90191296D01*
X137356478Y-90191295D01*
X137560846Y-90136534D01*
X137569243Y-90134284D01*
X137776749Y-90037523D01*
X137964300Y-89906198D01*
X138126198Y-89744300D01*
X138257523Y-89556749D01*
X138354284Y-89349243D01*
X138413543Y-89128087D01*
X138433498Y-88900000D01*
X138413543Y-88671913D01*
X138354284Y-88450757D01*
X138257523Y-88243251D01*
X138126198Y-88055700D01*
X137964300Y-87893802D01*
X137848349Y-87812612D01*
X137788925Y-87746945D01*
X137763877Y-87661997D01*
X137778168Y-87574594D01*
X137814938Y-87516075D01*
X137842310Y-87485828D01*
X137833807Y-87473017D01*
X137135855Y-86775065D01*
X137119380Y-86764713D01*
X137111869Y-86767341D01*
X136407966Y-87471244D01*
X136397826Y-87487382D01*
X136421674Y-87512450D01*
X136466907Y-87588590D01*
X136474626Y-87676816D01*
X136443299Y-87759654D01*
X136391636Y-87812622D01*
X136282820Y-87888816D01*
X136282819Y-87888817D01*
X136275700Y-87893802D01*
X136113802Y-88055700D01*
X135982477Y-88243251D01*
X135885716Y-88450757D01*
X135826457Y-88671913D01*
X135806502Y-88900000D01*
X133393498Y-88900000D01*
X133373543Y-88671913D01*
X133314284Y-88450757D01*
X133217523Y-88243251D01*
X133086198Y-88055700D01*
X132924300Y-87893802D01*
X132736749Y-87762477D01*
X132529243Y-87665716D01*
X132515364Y-87661997D01*
X132316478Y-87608705D01*
X132316474Y-87608704D01*
X132308087Y-87606457D01*
X132299436Y-87605700D01*
X132299435Y-87605700D01*
X132088653Y-87587259D01*
X132080000Y-87586502D01*
X132071347Y-87587259D01*
X131860565Y-87605700D01*
X131860564Y-87605700D01*
X131851913Y-87606457D01*
X131843526Y-87608704D01*
X131843522Y-87608705D01*
X131644636Y-87661997D01*
X131630757Y-87665716D01*
X131423251Y-87762477D01*
X131235700Y-87893802D01*
X131073802Y-88055700D01*
X130942477Y-88243251D01*
X130845716Y-88450757D01*
X130786457Y-88671913D01*
X130766502Y-88900000D01*
X112268500Y-88900000D01*
X112268500Y-86408653D01*
X135807761Y-86408653D01*
X135826194Y-86619348D01*
X135829199Y-86636390D01*
X135883937Y-86840674D01*
X135889861Y-86856950D01*
X135979238Y-87048618D01*
X135987898Y-87063619D01*
X136020041Y-87109524D01*
X136034171Y-87122310D01*
X136046983Y-87113807D01*
X136744935Y-86415855D01*
X136754508Y-86400620D01*
X137484713Y-86400620D01*
X137487341Y-86408131D01*
X138191244Y-87112034D01*
X138207382Y-87122174D01*
X138218521Y-87111577D01*
X138252102Y-87063619D01*
X138260762Y-87048618D01*
X138339402Y-86879976D01*
X141128231Y-86879976D01*
X141140356Y-87064969D01*
X141143199Y-87082914D01*
X141188833Y-87262601D01*
X141194900Y-87279731D01*
X141272509Y-87448079D01*
X141281601Y-87463828D01*
X141386722Y-87612570D01*
X141420460Y-87694455D01*
X141415329Y-87782870D01*
X141372344Y-87860302D01*
X141343555Y-87886663D01*
X141334030Y-87893802D01*
X141276739Y-87936739D01*
X141189385Y-88053295D01*
X141138255Y-88189684D01*
X141131500Y-88251866D01*
X141131500Y-89548134D01*
X141138255Y-89610316D01*
X141189385Y-89746705D01*
X141276739Y-89863261D01*
X141393295Y-89950615D01*
X141529684Y-90001745D01*
X141567760Y-90005881D01*
X141586506Y-90007918D01*
X141586511Y-90007918D01*
X141591866Y-90008500D01*
X142888134Y-90008500D01*
X142893489Y-90007918D01*
X142893494Y-90007918D01*
X142912240Y-90005881D01*
X142950316Y-90001745D01*
X143086705Y-89950615D01*
X143203261Y-89863261D01*
X143290615Y-89746705D01*
X143341745Y-89610316D01*
X143348500Y-89548134D01*
X143348500Y-88900000D01*
X148546502Y-88900000D01*
X148566457Y-89128087D01*
X148625716Y-89349243D01*
X148722477Y-89556749D01*
X148853802Y-89744300D01*
X149015700Y-89906198D01*
X149203251Y-90037523D01*
X149410757Y-90134284D01*
X149419154Y-90136534D01*
X149623522Y-90191295D01*
X149623526Y-90191296D01*
X149631913Y-90193543D01*
X149640564Y-90194300D01*
X149640565Y-90194300D01*
X149851347Y-90212741D01*
X149860000Y-90213498D01*
X149868653Y-90212741D01*
X150079435Y-90194300D01*
X150079436Y-90194300D01*
X150088087Y-90193543D01*
X150096474Y-90191296D01*
X150096478Y-90191295D01*
X150300846Y-90136534D01*
X150309243Y-90134284D01*
X150516749Y-90037523D01*
X150704300Y-89906198D01*
X150866198Y-89744300D01*
X150997523Y-89556749D01*
X151094284Y-89349243D01*
X151153543Y-89128087D01*
X151173498Y-88900000D01*
X151153543Y-88671913D01*
X151094284Y-88450757D01*
X150997523Y-88243251D01*
X150866198Y-88055700D01*
X150704300Y-87893802D01*
X150516749Y-87762477D01*
X150309243Y-87665716D01*
X150295364Y-87661997D01*
X150096478Y-87608705D01*
X150096474Y-87608704D01*
X150088087Y-87606457D01*
X150079436Y-87605700D01*
X150079435Y-87605700D01*
X149868653Y-87587259D01*
X149860000Y-87586502D01*
X149851347Y-87587259D01*
X149640565Y-87605700D01*
X149640564Y-87605700D01*
X149631913Y-87606457D01*
X149623526Y-87608704D01*
X149623522Y-87608705D01*
X149424636Y-87661997D01*
X149410757Y-87665716D01*
X149203251Y-87762477D01*
X149015700Y-87893802D01*
X148853802Y-88055700D01*
X148722477Y-88243251D01*
X148625716Y-88450757D01*
X148566457Y-88671913D01*
X148546502Y-88900000D01*
X143348500Y-88900000D01*
X143348500Y-88251866D01*
X143341745Y-88189684D01*
X143290615Y-88053295D01*
X143203261Y-87936739D01*
X143086705Y-87849385D01*
X143085065Y-87848770D01*
X143045731Y-87813900D01*
X142974253Y-87805046D01*
X142974140Y-87805521D01*
X142969850Y-87804501D01*
X142965563Y-87803970D01*
X142962002Y-87802635D01*
X142961996Y-87802633D01*
X142950316Y-87798255D01*
X142912240Y-87794119D01*
X142893494Y-87792082D01*
X142893489Y-87792082D01*
X142888134Y-87791500D01*
X142854717Y-87791500D01*
X142768374Y-87771793D01*
X142714003Y-87733214D01*
X141881410Y-86900620D01*
X142604713Y-86900620D01*
X142607341Y-86908131D01*
X143176130Y-87476919D01*
X143178217Y-87480240D01*
X143180325Y-87479502D01*
X143192028Y-87467799D01*
X143225442Y-87408134D01*
X158511500Y-87408134D01*
X158518255Y-87470316D01*
X158569385Y-87606705D01*
X158656739Y-87723261D01*
X158773295Y-87810615D01*
X158909684Y-87861745D01*
X158947760Y-87865881D01*
X158966506Y-87867918D01*
X158966511Y-87867918D01*
X158971866Y-87868500D01*
X161068134Y-87868500D01*
X161073489Y-87867918D01*
X161073494Y-87867918D01*
X161092240Y-87865881D01*
X161130316Y-87861745D01*
X161266705Y-87810615D01*
X161383261Y-87723261D01*
X161470615Y-87606705D01*
X161521745Y-87470316D01*
X161528500Y-87408134D01*
X161528500Y-85311866D01*
X161527216Y-85300041D01*
X161525881Y-85287760D01*
X161521745Y-85249684D01*
X161470615Y-85113295D01*
X161383261Y-84996739D01*
X161266705Y-84909385D01*
X161130316Y-84858255D01*
X161092240Y-84854119D01*
X161073494Y-84852082D01*
X161073489Y-84852082D01*
X161068134Y-84851500D01*
X158971866Y-84851500D01*
X158966511Y-84852082D01*
X158966506Y-84852082D01*
X158947760Y-84854119D01*
X158909684Y-84858255D01*
X158773295Y-84909385D01*
X158656739Y-84996739D01*
X158569385Y-85113295D01*
X158518255Y-85249684D01*
X158514119Y-85287760D01*
X158512785Y-85300041D01*
X158511500Y-85311866D01*
X158511500Y-87408134D01*
X143225442Y-87408134D01*
X143252089Y-87360552D01*
X143259476Y-87343960D01*
X143319071Y-87168401D01*
X143323310Y-87150743D01*
X143350382Y-86964030D01*
X143351375Y-86952384D01*
X143352594Y-86905853D01*
X143352211Y-86894167D01*
X143334949Y-86706303D01*
X143331638Y-86688440D01*
X143281313Y-86510001D01*
X143274807Y-86493051D01*
X143192895Y-86326949D01*
X143183883Y-86319280D01*
X143183253Y-86319403D01*
X143172287Y-86326923D01*
X142615065Y-86884145D01*
X142604713Y-86900620D01*
X141881410Y-86900620D01*
X141880790Y-86900000D01*
X141311585Y-86330796D01*
X141296445Y-86321282D01*
X141287896Y-86329831D01*
X141216201Y-86466102D01*
X141209252Y-86482877D01*
X141154274Y-86659936D01*
X141150497Y-86677704D01*
X141128706Y-86861814D01*
X141128231Y-86879976D01*
X138339402Y-86879976D01*
X138350139Y-86856950D01*
X138356063Y-86840674D01*
X138410801Y-86636390D01*
X138413806Y-86619348D01*
X138432239Y-86408653D01*
X138432239Y-86391347D01*
X138413806Y-86180652D01*
X138410801Y-86163610D01*
X138356063Y-85959326D01*
X138355599Y-85958050D01*
X141663584Y-85958050D01*
X141673539Y-85974328D01*
X142224145Y-86524935D01*
X142240620Y-86535287D01*
X142248131Y-86532659D01*
X142807237Y-85973552D01*
X142816776Y-85958371D01*
X142804211Y-85945783D01*
X142752890Y-85913402D01*
X142736706Y-85905155D01*
X142564508Y-85836456D01*
X142547091Y-85831297D01*
X142365268Y-85795130D01*
X142347187Y-85793230D01*
X142161819Y-85790802D01*
X142143704Y-85792228D01*
X141960984Y-85823625D01*
X141943445Y-85828325D01*
X141769514Y-85892492D01*
X141753104Y-85900319D01*
X141676089Y-85946139D01*
X141663584Y-85958050D01*
X138355599Y-85958050D01*
X138350139Y-85943050D01*
X138260762Y-85751382D01*
X138252102Y-85736381D01*
X138219959Y-85690476D01*
X138205829Y-85677690D01*
X138193017Y-85686193D01*
X137495065Y-86384145D01*
X137484713Y-86400620D01*
X136754508Y-86400620D01*
X136755287Y-86399380D01*
X136752659Y-86391869D01*
X136048756Y-85687966D01*
X136032618Y-85677826D01*
X136021479Y-85688423D01*
X135987898Y-85736381D01*
X135979238Y-85751382D01*
X135889861Y-85943050D01*
X135883937Y-85959326D01*
X135829199Y-86163610D01*
X135826194Y-86180652D01*
X135807761Y-86391347D01*
X135807761Y-86408653D01*
X112268500Y-86408653D01*
X112268500Y-85314171D01*
X136397690Y-85314171D01*
X136406193Y-85326983D01*
X137104145Y-86024935D01*
X137120620Y-86035287D01*
X137128131Y-86032659D01*
X137832034Y-85328756D01*
X137842174Y-85312618D01*
X137831577Y-85301479D01*
X137783619Y-85267898D01*
X137768618Y-85259238D01*
X137576950Y-85169861D01*
X137560674Y-85163937D01*
X137356390Y-85109199D01*
X137339348Y-85106194D01*
X137128653Y-85087761D01*
X137111347Y-85087761D01*
X136900652Y-85106194D01*
X136883610Y-85109199D01*
X136679326Y-85163937D01*
X136663050Y-85169861D01*
X136471382Y-85259238D01*
X136456381Y-85267898D01*
X136410476Y-85300041D01*
X136397690Y-85314171D01*
X112268500Y-85314171D01*
X112268500Y-83792150D01*
X159152599Y-83792150D01*
X159165708Y-83805113D01*
X159326602Y-83903710D01*
X159340485Y-83910784D01*
X159545343Y-83995638D01*
X159560155Y-84000451D01*
X159775770Y-84052216D01*
X159791156Y-84054653D01*
X160012211Y-84072050D01*
X160027789Y-84072050D01*
X160248844Y-84054653D01*
X160264230Y-84052216D01*
X160479845Y-84000451D01*
X160494657Y-83995638D01*
X160699515Y-83910784D01*
X160713398Y-83903710D01*
X160874774Y-83804818D01*
X160887358Y-83792513D01*
X160877635Y-83776845D01*
X160035855Y-82935065D01*
X160019380Y-82924713D01*
X160011869Y-82927341D01*
X159161963Y-83777247D01*
X159152599Y-83792150D01*
X112268500Y-83792150D01*
X112268500Y-82567789D01*
X158507950Y-82567789D01*
X158525347Y-82788844D01*
X158527784Y-82804230D01*
X158579549Y-83019845D01*
X158584362Y-83034657D01*
X158669216Y-83239515D01*
X158676290Y-83253398D01*
X158775182Y-83414774D01*
X158787487Y-83427358D01*
X158803155Y-83417635D01*
X159644935Y-82575855D01*
X159654508Y-82560620D01*
X160384713Y-82560620D01*
X160387341Y-82568131D01*
X161237247Y-83418037D01*
X161252150Y-83427401D01*
X161265113Y-83414292D01*
X161363710Y-83253398D01*
X161370784Y-83239515D01*
X161455638Y-83034657D01*
X161460451Y-83019845D01*
X161512216Y-82804230D01*
X161514653Y-82788844D01*
X161532050Y-82567789D01*
X161532050Y-82552211D01*
X161514653Y-82331156D01*
X161512216Y-82315770D01*
X161460451Y-82100155D01*
X161455638Y-82085343D01*
X161370784Y-81880485D01*
X161363710Y-81866602D01*
X161264818Y-81705226D01*
X161252513Y-81692642D01*
X161236845Y-81702365D01*
X160395065Y-82544145D01*
X160384713Y-82560620D01*
X159654508Y-82560620D01*
X159655287Y-82559380D01*
X159652659Y-82551869D01*
X158802753Y-81701963D01*
X158787850Y-81692599D01*
X158774887Y-81705708D01*
X158676290Y-81866602D01*
X158669216Y-81880485D01*
X158584362Y-82085343D01*
X158579549Y-82100155D01*
X158527784Y-82315770D01*
X158525347Y-82331156D01*
X158507950Y-82552211D01*
X158507950Y-82567789D01*
X112268500Y-82567789D01*
X112268500Y-82078134D01*
X138666500Y-82078134D01*
X138673255Y-82140316D01*
X138724385Y-82276705D01*
X138811739Y-82393261D01*
X138928295Y-82480615D01*
X139064684Y-82531745D01*
X139102760Y-82535881D01*
X139121506Y-82537918D01*
X139121511Y-82537918D01*
X139126866Y-82538500D01*
X140273134Y-82538500D01*
X140278489Y-82537918D01*
X140278494Y-82537918D01*
X140297240Y-82535881D01*
X140335316Y-82531745D01*
X140471705Y-82480615D01*
X140472775Y-82483469D01*
X140536243Y-82465456D01*
X140605459Y-82474086D01*
X140761180Y-82522290D01*
X140909870Y-82537918D01*
X140953073Y-82542459D01*
X140953074Y-82542459D01*
X140962750Y-82543476D01*
X141164596Y-82525106D01*
X141323000Y-82478485D01*
X141349686Y-82470631D01*
X141349688Y-82470630D01*
X141359029Y-82467881D01*
X141513757Y-82386992D01*
X141599401Y-82364456D01*
X141686346Y-82381311D01*
X141700593Y-82388295D01*
X141837565Y-82462356D01*
X142031180Y-82522290D01*
X142179870Y-82537918D01*
X142223073Y-82542459D01*
X142223074Y-82542459D01*
X142232750Y-82543476D01*
X142434596Y-82525106D01*
X142593000Y-82478485D01*
X142619686Y-82470631D01*
X142619688Y-82470630D01*
X142629029Y-82467881D01*
X142751943Y-82403624D01*
X142800015Y-82378493D01*
X142800018Y-82378491D01*
X142808645Y-82373981D01*
X142966601Y-82246981D01*
X142983219Y-82227177D01*
X143018664Y-82184935D01*
X143096881Y-82091719D01*
X143194523Y-81914109D01*
X143255807Y-81720916D01*
X143258984Y-81692599D01*
X143272880Y-81568706D01*
X143273500Y-81563183D01*
X143273500Y-81327487D01*
X159152642Y-81327487D01*
X159162365Y-81343155D01*
X160004145Y-82184935D01*
X160020620Y-82195287D01*
X160028131Y-82192659D01*
X160878037Y-81342753D01*
X160887401Y-81327850D01*
X160874292Y-81314887D01*
X160713398Y-81216290D01*
X160712385Y-81215774D01*
X167783102Y-81215774D01*
X167791751Y-81446158D01*
X167839093Y-81671791D01*
X167852488Y-81705708D01*
X167889910Y-81800466D01*
X167923776Y-81886221D01*
X167928148Y-81893425D01*
X167928150Y-81893430D01*
X167991883Y-81998458D01*
X168043377Y-82083317D01*
X168048908Y-82089691D01*
X168180936Y-82241840D01*
X168222641Y-82319969D01*
X168226316Y-82408456D01*
X168191235Y-82489775D01*
X168135352Y-82541484D01*
X168132133Y-82543476D01*
X168070652Y-82581522D01*
X167945695Y-82706697D01*
X167939631Y-82716535D01*
X167939630Y-82716536D01*
X167858951Y-82847421D01*
X167852885Y-82857262D01*
X167849247Y-82868232D01*
X167849245Y-82868235D01*
X167829641Y-82927341D01*
X167797203Y-83025139D01*
X167786500Y-83129600D01*
X167786500Y-84430400D01*
X167797474Y-84536166D01*
X167853450Y-84703946D01*
X167946522Y-84854348D01*
X168071697Y-84979305D01*
X168222262Y-85072115D01*
X168233232Y-85075753D01*
X168233235Y-85075755D01*
X168379830Y-85124378D01*
X168379833Y-85124379D01*
X168390139Y-85127797D01*
X168400939Y-85128904D01*
X168400941Y-85128904D01*
X168489550Y-85137983D01*
X168489558Y-85137983D01*
X168494600Y-85138500D01*
X170045400Y-85138500D01*
X170098133Y-85133029D01*
X170140336Y-85128650D01*
X170140339Y-85128649D01*
X170151166Y-85127526D01*
X170227829Y-85101949D01*
X170307977Y-85075210D01*
X170307980Y-85075208D01*
X170318946Y-85071550D01*
X170469348Y-84978478D01*
X170594305Y-84853303D01*
X170680311Y-84713777D01*
X170681049Y-84712579D01*
X170681049Y-84712578D01*
X170687115Y-84702738D01*
X170742797Y-84534861D01*
X170753500Y-84430400D01*
X170753500Y-83129600D01*
X170742526Y-83023834D01*
X170686550Y-82856054D01*
X170593478Y-82705652D01*
X170468303Y-82580695D01*
X170403207Y-82540569D01*
X170340048Y-82478485D01*
X170310080Y-82395146D01*
X170319239Y-82307058D01*
X170370270Y-82227177D01*
X170410033Y-82189245D01*
X170416135Y-82183424D01*
X170448208Y-82140316D01*
X170548721Y-82005223D01*
X170548723Y-82005220D01*
X170553754Y-81998458D01*
X170658240Y-81792949D01*
X170726607Y-81572773D01*
X170756898Y-81344226D01*
X170748249Y-81113842D01*
X170700907Y-80888209D01*
X170653059Y-80767051D01*
X170619321Y-80681620D01*
X170619319Y-80681616D01*
X170616224Y-80673779D01*
X170611852Y-80666575D01*
X170611850Y-80666570D01*
X170501001Y-80483897D01*
X170500998Y-80483893D01*
X170496623Y-80476683D01*
X170345523Y-80302555D01*
X170200509Y-80183650D01*
X170146237Y-80113666D01*
X170127704Y-80027063D01*
X170148583Y-79940996D01*
X170204737Y-79872511D01*
X170215549Y-79864692D01*
X170242019Y-79846871D01*
X170255099Y-79836355D01*
X170409659Y-79688910D01*
X170420793Y-79676325D01*
X170548299Y-79504950D01*
X170557143Y-79490687D01*
X170653959Y-79300266D01*
X170660272Y-79284718D01*
X170723618Y-79080711D01*
X170727223Y-79064316D01*
X170728295Y-79056226D01*
X170726496Y-79036854D01*
X170725425Y-79036151D01*
X170713473Y-79034000D01*
X167833116Y-79034000D01*
X167815265Y-79038074D01*
X167815115Y-79055076D01*
X167837843Y-79163399D01*
X167842670Y-79179487D01*
X167921127Y-79378153D01*
X167928600Y-79393208D01*
X168039407Y-79575811D01*
X168049309Y-79589391D01*
X168189305Y-79750721D01*
X168201345Y-79762429D01*
X168339521Y-79875727D01*
X168393794Y-79945713D01*
X168412326Y-80032315D01*
X168391447Y-80118382D01*
X168335293Y-80186867D01*
X168324482Y-80194685D01*
X168290681Y-80217441D01*
X168123865Y-80376576D01*
X168118831Y-80383342D01*
X168041517Y-80487256D01*
X167986246Y-80561542D01*
X167881760Y-80767051D01*
X167813393Y-80987227D01*
X167783102Y-81215774D01*
X160712385Y-81215774D01*
X160699515Y-81209216D01*
X160494657Y-81124362D01*
X160479845Y-81119549D01*
X160264230Y-81067784D01*
X160248844Y-81065347D01*
X160027789Y-81047950D01*
X160012211Y-81047950D01*
X159791156Y-81065347D01*
X159775770Y-81067784D01*
X159560155Y-81119549D01*
X159545343Y-81124362D01*
X159340485Y-81209216D01*
X159326602Y-81216290D01*
X159165226Y-81315182D01*
X159152642Y-81327487D01*
X143273500Y-81327487D01*
X143273500Y-81003996D01*
X143258723Y-80853287D01*
X143200142Y-80659258D01*
X143144589Y-80554777D01*
X143109560Y-80488896D01*
X143109557Y-80488892D01*
X143104990Y-80480302D01*
X142976890Y-80323237D01*
X142875259Y-80239161D01*
X142828218Y-80200245D01*
X142828217Y-80200244D01*
X142820722Y-80194044D01*
X142642435Y-80097644D01*
X142448820Y-80037710D01*
X142292367Y-80021266D01*
X142256927Y-80017541D01*
X142256926Y-80017541D01*
X142247250Y-80016524D01*
X142045404Y-80034894D01*
X141911144Y-80074409D01*
X141860314Y-80089369D01*
X141860312Y-80089370D01*
X141850971Y-80092119D01*
X141696243Y-80173008D01*
X141610599Y-80195544D01*
X141523654Y-80178689D01*
X141509407Y-80171705D01*
X141372435Y-80097644D01*
X141178820Y-80037710D01*
X141022367Y-80021266D01*
X140986927Y-80017541D01*
X140986926Y-80017541D01*
X140977250Y-80016524D01*
X140775404Y-80034894D01*
X140655387Y-80070217D01*
X140601584Y-80086052D01*
X140513190Y-80091525D01*
X140472418Y-80077482D01*
X140471705Y-80079385D01*
X140335316Y-80028255D01*
X140297240Y-80024119D01*
X140278494Y-80022082D01*
X140278489Y-80022082D01*
X140273134Y-80021500D01*
X139126866Y-80021500D01*
X139121511Y-80022082D01*
X139121506Y-80022082D01*
X139102760Y-80024119D01*
X139064684Y-80028255D01*
X138928295Y-80079385D01*
X138811739Y-80166739D01*
X138724385Y-80283295D01*
X138673255Y-80419684D01*
X138666500Y-80481866D01*
X138666500Y-82078134D01*
X112268500Y-82078134D01*
X112268500Y-78740000D01*
X130766502Y-78740000D01*
X130786457Y-78968087D01*
X130788704Y-78976474D01*
X130788705Y-78976478D01*
X130816635Y-79080711D01*
X130845716Y-79189243D01*
X130942477Y-79396749D01*
X131073802Y-79584300D01*
X131235700Y-79746198D01*
X131364457Y-79836355D01*
X131379476Y-79846871D01*
X131423251Y-79877523D01*
X131630757Y-79974284D01*
X131639154Y-79976534D01*
X131843522Y-80031295D01*
X131843526Y-80031296D01*
X131851913Y-80033543D01*
X131860564Y-80034300D01*
X131860565Y-80034300D01*
X132071347Y-80052741D01*
X132080000Y-80053498D01*
X132088653Y-80052741D01*
X132299435Y-80034300D01*
X132299436Y-80034300D01*
X132308087Y-80033543D01*
X132316474Y-80031296D01*
X132316478Y-80031295D01*
X132520846Y-79976534D01*
X132529243Y-79974284D01*
X132736749Y-79877523D01*
X132780525Y-79846871D01*
X132795543Y-79836355D01*
X132924300Y-79746198D01*
X133086198Y-79584300D01*
X133217523Y-79396749D01*
X133314284Y-79189243D01*
X133343365Y-79080711D01*
X133371295Y-78976478D01*
X133371296Y-78976474D01*
X133373543Y-78968087D01*
X133393498Y-78740000D01*
X148546502Y-78740000D01*
X148566457Y-78968087D01*
X148568704Y-78976474D01*
X148568705Y-78976478D01*
X148596635Y-79080711D01*
X148625716Y-79189243D01*
X148722477Y-79396749D01*
X148853802Y-79584300D01*
X149015700Y-79746198D01*
X149144457Y-79836355D01*
X149159476Y-79846871D01*
X149203251Y-79877523D01*
X149410757Y-79974284D01*
X149419154Y-79976534D01*
X149623522Y-80031295D01*
X149623526Y-80031296D01*
X149631913Y-80033543D01*
X149640564Y-80034300D01*
X149640565Y-80034300D01*
X149851347Y-80052741D01*
X149860000Y-80053498D01*
X149868653Y-80052741D01*
X150079435Y-80034300D01*
X150079436Y-80034300D01*
X150088087Y-80033543D01*
X150096474Y-80031296D01*
X150096478Y-80031295D01*
X150300846Y-79976534D01*
X150309243Y-79974284D01*
X150516749Y-79877523D01*
X150560525Y-79846871D01*
X150575543Y-79836355D01*
X150704300Y-79746198D01*
X150866198Y-79584300D01*
X150997523Y-79396749D01*
X151094284Y-79189243D01*
X151123365Y-79080711D01*
X151151295Y-78976478D01*
X151151296Y-78976474D01*
X151153543Y-78968087D01*
X151173498Y-78740000D01*
X151153543Y-78511913D01*
X151151362Y-78503774D01*
X167811705Y-78503774D01*
X167813504Y-78523146D01*
X167814575Y-78523849D01*
X167826527Y-78526000D01*
X168993577Y-78526000D01*
X169012547Y-78521670D01*
X169016000Y-78514500D01*
X169016000Y-78503577D01*
X169524000Y-78503577D01*
X169528330Y-78522547D01*
X169535500Y-78526000D01*
X170706884Y-78526000D01*
X170724735Y-78521926D01*
X170724885Y-78504924D01*
X170702157Y-78396601D01*
X170697330Y-78380513D01*
X170618873Y-78181847D01*
X170611400Y-78166792D01*
X170500593Y-77984189D01*
X170490691Y-77970609D01*
X170350695Y-77809279D01*
X170338655Y-77797571D01*
X170173477Y-77662133D01*
X170159640Y-77652623D01*
X169973997Y-77546949D01*
X169958755Y-77539906D01*
X169757963Y-77467022D01*
X169741753Y-77462649D01*
X169546065Y-77427263D01*
X169527123Y-77428126D01*
X169524000Y-77443405D01*
X169524000Y-78503577D01*
X169016000Y-78503577D01*
X169016000Y-77450459D01*
X169011670Y-77431489D01*
X169008321Y-77429876D01*
X169000645Y-77429339D01*
X168923759Y-77435863D01*
X168907212Y-77438691D01*
X168700451Y-77492355D01*
X168684608Y-77497934D01*
X168489854Y-77585665D01*
X168475181Y-77593832D01*
X168297982Y-77713128D01*
X168284901Y-77723645D01*
X168130341Y-77871090D01*
X168119207Y-77883675D01*
X167991701Y-78055050D01*
X167982857Y-78069313D01*
X167886041Y-78259734D01*
X167879728Y-78275282D01*
X167816382Y-78479289D01*
X167812777Y-78495684D01*
X167811705Y-78503774D01*
X151151362Y-78503774D01*
X151149195Y-78495684D01*
X151096534Y-78299154D01*
X151094284Y-78290757D01*
X150997523Y-78083251D01*
X150987764Y-78069313D01*
X150871183Y-77902820D01*
X150866198Y-77895700D01*
X150704300Y-77733802D01*
X150516749Y-77602477D01*
X150309243Y-77505716D01*
X150300846Y-77503466D01*
X150096478Y-77448705D01*
X150096474Y-77448704D01*
X150088087Y-77446457D01*
X150079436Y-77445700D01*
X150079435Y-77445700D01*
X149868653Y-77427259D01*
X149860000Y-77426502D01*
X149851347Y-77427259D01*
X149640565Y-77445700D01*
X149640564Y-77445700D01*
X149631913Y-77446457D01*
X149623526Y-77448704D01*
X149623522Y-77448705D01*
X149419154Y-77503466D01*
X149410757Y-77505716D01*
X149203251Y-77602477D01*
X149015700Y-77733802D01*
X148853802Y-77895700D01*
X148848817Y-77902820D01*
X148732237Y-78069313D01*
X148722477Y-78083251D01*
X148625716Y-78290757D01*
X148623466Y-78299154D01*
X148570806Y-78495684D01*
X148566457Y-78511913D01*
X148546502Y-78740000D01*
X133393498Y-78740000D01*
X133373543Y-78511913D01*
X133369195Y-78495684D01*
X133316534Y-78299154D01*
X133314284Y-78290757D01*
X133217523Y-78083251D01*
X133207764Y-78069313D01*
X133091183Y-77902820D01*
X133086198Y-77895700D01*
X132924300Y-77733802D01*
X132736749Y-77602477D01*
X132529243Y-77505716D01*
X132520846Y-77503466D01*
X132316478Y-77448705D01*
X132316474Y-77448704D01*
X132308087Y-77446457D01*
X132299436Y-77445700D01*
X132299435Y-77445700D01*
X132088653Y-77427259D01*
X132080000Y-77426502D01*
X132071347Y-77427259D01*
X131860565Y-77445700D01*
X131860564Y-77445700D01*
X131851913Y-77446457D01*
X131843526Y-77448704D01*
X131843522Y-77448705D01*
X131639154Y-77503466D01*
X131630757Y-77505716D01*
X131423251Y-77602477D01*
X131235700Y-77733802D01*
X131073802Y-77895700D01*
X131068817Y-77902820D01*
X130952237Y-78069313D01*
X130942477Y-78083251D01*
X130845716Y-78290757D01*
X130843466Y-78299154D01*
X130790806Y-78495684D01*
X130786457Y-78511913D01*
X130766502Y-78740000D01*
X112268500Y-78740000D01*
X112268500Y-74367500D01*
X112288207Y-74281157D01*
X112343426Y-74211916D01*
X112423218Y-74173489D01*
X112467500Y-74168500D01*
X179632500Y-74168500D01*
X179718843Y-74188207D01*
G37*
%TD.AperFunction*%
%TD*%
M02*
