%FSLAX45Y45*%
G04 Gerber Fmt 4.5, Leading zero omitted, Abs format (unit mm)*
G04 Created by KiCad (PCBNEW 6.0.6-3a73a75311~116~ubuntu20.04.1) date 2022-07-17 11:06:09*
%MOMM*%
%LPD*%
G01*
G04 APERTURE LIST*
%TA.AperFunction,Profile*%
%ADD10C,0.100000*%
%TD*%
%ADD11C,0.200000*%
G04 APERTURE END LIST*
D10*
X18034000Y-7366000D02*
X11176000Y-7366000D01*
X18034000Y-10414000D02*
X18034000Y-7366000D01*
X11176000Y-7366000D02*
X11176000Y-10414000D01*
X11176000Y-10414000D02*
X18034000Y-10414000D01*
D11*
X11428619Y-10729476D02*
X11428619Y-10529476D01*
X11476238Y-10529476D01*
X11504809Y-10539000D01*
X11523857Y-10558048D01*
X11533381Y-10577095D01*
X11542905Y-10615190D01*
X11542905Y-10643762D01*
X11533381Y-10681857D01*
X11523857Y-10700905D01*
X11504809Y-10719952D01*
X11476238Y-10729476D01*
X11428619Y-10729476D01*
X11628619Y-10729476D02*
X11628619Y-10596143D01*
X11628619Y-10634238D02*
X11638143Y-10615190D01*
X11647667Y-10605667D01*
X11666714Y-10596143D01*
X11685762Y-10596143D01*
X11752428Y-10729476D02*
X11752428Y-10596143D01*
X11752428Y-10529476D02*
X11742905Y-10539000D01*
X11752428Y-10548524D01*
X11761952Y-10539000D01*
X11752428Y-10529476D01*
X11752428Y-10548524D01*
X11876238Y-10729476D02*
X11857190Y-10719952D01*
X11847667Y-10700905D01*
X11847667Y-10529476D01*
X11981000Y-10729476D02*
X11961952Y-10719952D01*
X11952428Y-10700905D01*
X11952428Y-10529476D01*
X12209571Y-10729476D02*
X12209571Y-10529476D01*
X12276238Y-10672333D01*
X12342905Y-10529476D01*
X12342905Y-10729476D01*
X12523857Y-10729476D02*
X12523857Y-10624714D01*
X12514333Y-10605667D01*
X12495286Y-10596143D01*
X12457190Y-10596143D01*
X12438143Y-10605667D01*
X12523857Y-10719952D02*
X12504809Y-10729476D01*
X12457190Y-10729476D01*
X12438143Y-10719952D01*
X12428619Y-10700905D01*
X12428619Y-10681857D01*
X12438143Y-10662810D01*
X12457190Y-10653286D01*
X12504809Y-10653286D01*
X12523857Y-10643762D01*
X12619095Y-10596143D02*
X12619095Y-10796143D01*
X12619095Y-10605667D02*
X12638143Y-10596143D01*
X12676238Y-10596143D01*
X12695286Y-10605667D01*
X12704809Y-10615190D01*
X12714333Y-10634238D01*
X12714333Y-10691381D01*
X12704809Y-10710429D01*
X12695286Y-10719952D01*
X12676238Y-10729476D01*
X12638143Y-10729476D01*
X12619095Y-10719952D01*
X12800048Y-10710429D02*
X12809571Y-10719952D01*
X12800048Y-10729476D01*
X12790524Y-10719952D01*
X12800048Y-10710429D01*
X12800048Y-10729476D01*
X12800048Y-10605667D02*
X12809571Y-10615190D01*
X12800048Y-10624714D01*
X12790524Y-10615190D01*
X12800048Y-10605667D01*
X12800048Y-10624714D01*
M02*
