%TF.GenerationSoftware,KiCad,Pcbnew,6.0.6-3a73a75311~116~ubuntu20.04.1*%
%TF.CreationDate,2022-07-22T14:00:07-05:00*%
%TF.ProjectId,esp_ha_integrator,6573705f-6861-45f6-996e-746567726174,rev?*%
%TF.SameCoordinates,PX6a95280PY6350ce0*%
%TF.FileFunction,Legend,Top*%
%TF.FilePolarity,Positive*%
%FSLAX46Y46*%
G04 Gerber Fmt 4.6, Leading zero omitted, Abs format (unit mm)*
G04 Created by KiCad (PCBNEW 6.0.6-3a73a75311~116~ubuntu20.04.1) date 2022-07-22 14:00:07*
%MOMM*%
%LPD*%
G01*
G04 APERTURE LIST*
%ADD10C,0.150000*%
%ADD11C,0.127000*%
%ADD12C,0.200000*%
%ADD13C,0.120000*%
%ADD14C,0.100000*%
G04 APERTURE END LIST*
D10*
%TO.C,U1*%
X6058095Y29932620D02*
X6058095Y29123096D01*
X6105714Y29027858D01*
X6153333Y28980239D01*
X6248571Y28932620D01*
X6439047Y28932620D01*
X6534285Y28980239D01*
X6581904Y29027858D01*
X6629523Y29123096D01*
X6629523Y29932620D01*
X7629523Y28932620D02*
X7058095Y28932620D01*
X7343809Y28932620D02*
X7343809Y29932620D01*
X7248571Y29789762D01*
X7153333Y29694524D01*
X7058095Y29646905D01*
%TO.C,REF\u002A\u002A*%
X7302666Y19003620D02*
X6969333Y19479810D01*
X6731238Y19003620D02*
X6731238Y20003620D01*
X7112190Y20003620D01*
X7207428Y19956000D01*
X7255047Y19908381D01*
X7302666Y19813143D01*
X7302666Y19670286D01*
X7255047Y19575048D01*
X7207428Y19527429D01*
X7112190Y19479810D01*
X6731238Y19479810D01*
X7731238Y19527429D02*
X8064571Y19527429D01*
X8207428Y19003620D02*
X7731238Y19003620D01*
X7731238Y20003620D01*
X8207428Y20003620D01*
X8969333Y19527429D02*
X8636000Y19527429D01*
X8636000Y19003620D02*
X8636000Y20003620D01*
X9112190Y20003620D01*
X9636000Y20003620D02*
X9636000Y19765524D01*
X9397904Y19860762D02*
X9636000Y19765524D01*
X9874095Y19860762D01*
X9493142Y19575048D02*
X9636000Y19765524D01*
X9778857Y19575048D01*
X10397904Y20003620D02*
X10397904Y19765524D01*
X10159809Y19860762D02*
X10397904Y19765524D01*
X10636000Y19860762D01*
X10255047Y19575048D02*
X10397904Y19765524D01*
X10540761Y19575048D01*
%TO.C,J2*%
X53462380Y22526667D02*
X54176666Y22526667D01*
X54319523Y22479048D01*
X54414761Y22383810D01*
X54462380Y22240953D01*
X54462380Y22145715D01*
X53557619Y22955239D02*
X53510000Y23002858D01*
X53462380Y23098096D01*
X53462380Y23336191D01*
X53510000Y23431429D01*
X53557619Y23479048D01*
X53652857Y23526667D01*
X53748095Y23526667D01*
X53890952Y23479048D01*
X54462380Y22907620D01*
X54462380Y23526667D01*
%TO.C,J1*%
X60880666Y15787620D02*
X60880666Y15073334D01*
X60833047Y14930477D01*
X60737809Y14835239D01*
X60594952Y14787620D01*
X60499714Y14787620D01*
X61880666Y14787620D02*
X61309238Y14787620D01*
X61594952Y14787620D02*
X61594952Y15787620D01*
X61499714Y15644762D01*
X61404476Y15549524D01*
X61309238Y15501905D01*
%TO.C,Q1*%
X29114761Y25872381D02*
X29019523Y25920000D01*
X28924285Y26015239D01*
X28781428Y26158096D01*
X28686190Y26205715D01*
X28590952Y26205715D01*
X28638571Y25967620D02*
X28543333Y26015239D01*
X28448095Y26110477D01*
X28400476Y26300953D01*
X28400476Y26634286D01*
X28448095Y26824762D01*
X28543333Y26920000D01*
X28638571Y26967620D01*
X28829047Y26967620D01*
X28924285Y26920000D01*
X29019523Y26824762D01*
X29067142Y26634286D01*
X29067142Y26300953D01*
X29019523Y26110477D01*
X28924285Y26015239D01*
X28829047Y25967620D01*
X28638571Y25967620D01*
X30019523Y25967620D02*
X29448095Y25967620D01*
X29733809Y25967620D02*
X29733809Y26967620D01*
X29638571Y26824762D01*
X29543333Y26729524D01*
X29448095Y26681905D01*
%TO.C,R2*%
X36182380Y20153334D02*
X35706190Y19820000D01*
X36182380Y19581905D02*
X35182380Y19581905D01*
X35182380Y19962858D01*
X35230000Y20058096D01*
X35277619Y20105715D01*
X35372857Y20153334D01*
X35515714Y20153334D01*
X35610952Y20105715D01*
X35658571Y20058096D01*
X35706190Y19962858D01*
X35706190Y19581905D01*
X35277619Y20534286D02*
X35230000Y20581905D01*
X35182380Y20677143D01*
X35182380Y20915239D01*
X35230000Y21010477D01*
X35277619Y21058096D01*
X35372857Y21105715D01*
X35468095Y21105715D01*
X35610952Y21058096D01*
X36182380Y20486667D01*
X36182380Y21105715D01*
%TO.C,C3*%
X30127142Y8453334D02*
X30174761Y8405715D01*
X30222380Y8262858D01*
X30222380Y8167620D01*
X30174761Y8024762D01*
X30079523Y7929524D01*
X29984285Y7881905D01*
X29793809Y7834286D01*
X29650952Y7834286D01*
X29460476Y7881905D01*
X29365238Y7929524D01*
X29270000Y8024762D01*
X29222380Y8167620D01*
X29222380Y8262858D01*
X29270000Y8405715D01*
X29317619Y8453334D01*
X29222380Y8786667D02*
X29222380Y9405715D01*
X29603333Y9072381D01*
X29603333Y9215239D01*
X29650952Y9310477D01*
X29698571Y9358096D01*
X29793809Y9405715D01*
X30031904Y9405715D01*
X30127142Y9358096D01*
X30174761Y9310477D01*
X30222380Y9215239D01*
X30222380Y8929524D01*
X30174761Y8834286D01*
X30127142Y8786667D01*
%TO.C,C1*%
X23217142Y16323334D02*
X23264761Y16275715D01*
X23312380Y16132858D01*
X23312380Y16037620D01*
X23264761Y15894762D01*
X23169523Y15799524D01*
X23074285Y15751905D01*
X22883809Y15704286D01*
X22740952Y15704286D01*
X22550476Y15751905D01*
X22455238Y15799524D01*
X22360000Y15894762D01*
X22312380Y16037620D01*
X22312380Y16132858D01*
X22360000Y16275715D01*
X22407619Y16323334D01*
X23312380Y17275715D02*
X23312380Y16704286D01*
X23312380Y16990000D02*
X22312380Y16990000D01*
X22455238Y16894762D01*
X22550476Y16799524D01*
X22598095Y16704286D01*
%TO.C,C2*%
X27587142Y16073334D02*
X27634761Y16025715D01*
X27682380Y15882858D01*
X27682380Y15787620D01*
X27634761Y15644762D01*
X27539523Y15549524D01*
X27444285Y15501905D01*
X27253809Y15454286D01*
X27110952Y15454286D01*
X26920476Y15501905D01*
X26825238Y15549524D01*
X26730000Y15644762D01*
X26682380Y15787620D01*
X26682380Y15882858D01*
X26730000Y16025715D01*
X26777619Y16073334D01*
X26777619Y16454286D02*
X26730000Y16501905D01*
X26682380Y16597143D01*
X26682380Y16835239D01*
X26730000Y16930477D01*
X26777619Y16978096D01*
X26872857Y17025715D01*
X26968095Y17025715D01*
X27110952Y16978096D01*
X27682380Y16406667D01*
X27682380Y17025715D01*
%TO.C,REF\u002A\u002A*%
X44640666Y11891620D02*
X44307333Y12367810D01*
X44069238Y11891620D02*
X44069238Y12891620D01*
X44450190Y12891620D01*
X44545428Y12844000D01*
X44593047Y12796381D01*
X44640666Y12701143D01*
X44640666Y12558286D01*
X44593047Y12463048D01*
X44545428Y12415429D01*
X44450190Y12367810D01*
X44069238Y12367810D01*
X45069238Y12415429D02*
X45402571Y12415429D01*
X45545428Y11891620D02*
X45069238Y11891620D01*
X45069238Y12891620D01*
X45545428Y12891620D01*
X46307333Y12415429D02*
X45974000Y12415429D01*
X45974000Y11891620D02*
X45974000Y12891620D01*
X46450190Y12891620D01*
X46974000Y12891620D02*
X46974000Y12653524D01*
X46735904Y12748762D02*
X46974000Y12653524D01*
X47212095Y12748762D01*
X46831142Y12463048D02*
X46974000Y12653524D01*
X47116857Y12463048D01*
X47735904Y12891620D02*
X47735904Y12653524D01*
X47497809Y12748762D02*
X47735904Y12653524D01*
X47974000Y12748762D01*
X47593047Y12463048D02*
X47735904Y12653524D01*
X47878761Y12463048D01*
%TO.C,C4*%
X42367142Y19513334D02*
X42414761Y19465715D01*
X42462380Y19322858D01*
X42462380Y19227620D01*
X42414761Y19084762D01*
X42319523Y18989524D01*
X42224285Y18941905D01*
X42033809Y18894286D01*
X41890952Y18894286D01*
X41700476Y18941905D01*
X41605238Y18989524D01*
X41510000Y19084762D01*
X41462380Y19227620D01*
X41462380Y19322858D01*
X41510000Y19465715D01*
X41557619Y19513334D01*
X41795714Y20370477D02*
X42462380Y20370477D01*
X41414761Y20132381D02*
X42129047Y19894286D01*
X42129047Y20513334D01*
%TO.C,R1*%
X18402380Y20153334D02*
X17926190Y19820000D01*
X18402380Y19581905D02*
X17402380Y19581905D01*
X17402380Y19962858D01*
X17450000Y20058096D01*
X17497619Y20105715D01*
X17592857Y20153334D01*
X17735714Y20153334D01*
X17830952Y20105715D01*
X17878571Y20058096D01*
X17926190Y19962858D01*
X17926190Y19581905D01*
X18402380Y21105715D02*
X18402380Y20534286D01*
X18402380Y20820000D02*
X17402380Y20820000D01*
X17545238Y20724762D01*
X17640476Y20629524D01*
X17688095Y20534286D01*
%TO.C,U2*%
X27178095Y12667620D02*
X27178095Y11858096D01*
X27225714Y11762858D01*
X27273333Y11715239D01*
X27368571Y11667620D01*
X27559047Y11667620D01*
X27654285Y11715239D01*
X27701904Y11762858D01*
X27749523Y11858096D01*
X27749523Y12667620D01*
X28178095Y12572381D02*
X28225714Y12620000D01*
X28320952Y12667620D01*
X28559047Y12667620D01*
X28654285Y12620000D01*
X28701904Y12572381D01*
X28749523Y12477143D01*
X28749523Y12381905D01*
X28701904Y12239048D01*
X28130476Y11667620D01*
X28749523Y11667620D01*
D11*
%TO.C,U1*%
X18295000Y2800000D02*
X3895000Y2800000D01*
X3895000Y2800000D02*
X3895000Y20800000D01*
X18295000Y20800000D02*
X3895000Y20800000D01*
X3895000Y20800000D02*
X3895000Y27500000D01*
X18295000Y20800000D02*
X18295000Y2800000D01*
X3895000Y27500000D02*
X18295000Y27500000D01*
X18295000Y27500000D02*
X18295000Y20800000D01*
D12*
X3245000Y6840000D02*
G75*
G03*
X3245000Y6840000I-100000J0D01*
G01*
D13*
%TO.C,J2*%
X60710000Y22610000D02*
X66210000Y22610000D01*
X66210000Y23110000D02*
X60710000Y23110000D01*
X60710000Y20610000D02*
X60710000Y20110000D01*
X55410000Y20660000D02*
X56010000Y20360000D01*
X66210000Y25610000D02*
X60710000Y25610000D01*
X60710000Y20110000D02*
X66210000Y20110000D01*
X66210000Y20110000D02*
X66210000Y20610000D01*
X66210000Y25110000D02*
X66210000Y25610000D01*
X56010000Y20360000D02*
X55410000Y20060000D01*
X60710000Y25110000D02*
X66210000Y25110000D01*
X55410000Y20060000D02*
X55410000Y20660000D01*
X59600000Y19220000D02*
X59600000Y22860000D01*
X55100000Y27920000D02*
X55100000Y26500000D01*
X66210000Y22610000D02*
X66210000Y23110000D01*
X66820000Y27920000D02*
X55100000Y27920000D01*
X55100000Y26500000D02*
X59600000Y26500000D01*
X59600000Y26500000D02*
X59600000Y22860000D01*
X60710000Y25610000D02*
X60710000Y25110000D01*
X55100000Y19220000D02*
X59600000Y19220000D01*
X66820000Y22860000D02*
X66820000Y27920000D01*
X55100000Y17800000D02*
X55100000Y19220000D01*
X66210000Y20610000D02*
X60710000Y20610000D01*
X66820000Y22860000D02*
X66820000Y17800000D01*
X66820000Y17800000D02*
X55100000Y17800000D01*
X60710000Y23110000D02*
X60710000Y22610000D01*
%TO.C,J1*%
X58420000Y10414000D02*
X58420000Y9906000D01*
X59182000Y12954000D02*
X59182000Y10414000D01*
X58420000Y13880000D02*
X58420000Y12954000D01*
X59182000Y9906000D02*
X59182000Y7620000D01*
X65360000Y13880000D02*
X65360000Y6440000D01*
X59182000Y10414000D02*
X58420000Y10414000D01*
X58420000Y9906000D02*
X59182000Y9906000D01*
D14*
X58420000Y6440000D02*
X65360000Y6440000D01*
D13*
X59182000Y7620000D02*
X58420000Y7620000D01*
X58420000Y7620000D02*
X58420000Y6440000D01*
D14*
X58420000Y13880000D02*
X65360000Y13880000D01*
D13*
X58420000Y12954000D02*
X59182000Y12954000D01*
%TO.C,Q1*%
X27410000Y21010000D02*
X31010000Y21010000D01*
X31048478Y21021522D02*
G75*
G03*
X29210000Y25460000I-1838478J1838478D01*
G01*
X29210000Y25460001D02*
G75*
G03*
X27371522Y21021522I0J-2600001D01*
G01*
%TO.C,R2*%
X36730000Y23590000D02*
X36730000Y17050000D01*
X36730000Y17050000D02*
X39470000Y17050000D01*
X38100000Y16280000D02*
X38100000Y17050000D01*
X38100000Y24360000D02*
X38100000Y23590000D01*
X39470000Y23590000D02*
X36730000Y23590000D01*
X39470000Y17050000D02*
X39470000Y23590000D01*
%TO.C,C3*%
X31285000Y9781000D02*
X32180000Y9781000D01*
X31820000Y10341000D02*
X32180000Y10341000D01*
X31312000Y9821000D02*
X32180000Y9821000D01*
X33860000Y9140000D02*
X35036000Y9140000D01*
X33860000Y10261000D02*
X34324000Y10261000D01*
X33860000Y9180000D02*
X35025000Y9180000D01*
X31766000Y10301000D02*
X32180000Y10301000D01*
X30995000Y9100000D02*
X32180000Y9100000D01*
X32483000Y10661000D02*
X33557000Y10661000D01*
X30978000Y9020000D02*
X32180000Y9020000D01*
X32650000Y10701000D02*
X33390000Y10701000D01*
X30949000Y8820000D02*
X32180000Y8820000D01*
X33860000Y9421000D02*
X34944000Y9421000D01*
X33860000Y9341000D02*
X34974000Y9341000D01*
X33860000Y9260000D02*
X35002000Y9260000D01*
X33860000Y9741000D02*
X34780000Y9741000D01*
X33860000Y10221000D02*
X34371000Y10221000D01*
X33860000Y10381000D02*
X34162000Y10381000D01*
X33860000Y8860000D02*
X35087000Y8860000D01*
X31004000Y9140000D02*
X32180000Y9140000D01*
X32080000Y10501000D02*
X33960000Y10501000D01*
X31940000Y10421000D02*
X32180000Y10421000D01*
X33860000Y10061000D02*
X34536000Y10061000D01*
X33860000Y8820000D02*
X35091000Y8820000D01*
X30958000Y8900000D02*
X32180000Y8900000D01*
X33860000Y9581000D02*
X34871000Y9581000D01*
X33860000Y8980000D02*
X35070000Y8980000D01*
X30970000Y8980000D02*
X32180000Y8980000D01*
X33860000Y9821000D02*
X34728000Y9821000D01*
X33860000Y10301000D02*
X34274000Y10301000D01*
X33860000Y9300000D02*
X34988000Y9300000D01*
X31260000Y9741000D02*
X32180000Y9741000D01*
X33860000Y9461000D02*
X34927000Y9461000D01*
X31825000Y6350199D02*
X31825000Y6750199D01*
X33860000Y10101000D02*
X34498000Y10101000D01*
X30940000Y8660000D02*
X35100000Y8660000D01*
X31625000Y6550199D02*
X32025000Y6550199D01*
X32252000Y10581000D02*
X33788000Y10581000D01*
X33860000Y9060000D02*
X35054000Y9060000D01*
X33860000Y9861000D02*
X34700000Y9861000D01*
X33860000Y9781000D02*
X34755000Y9781000D01*
X31716000Y10261000D02*
X32180000Y10261000D01*
X31624000Y10181000D02*
X32180000Y10181000D01*
X33860000Y9020000D02*
X35062000Y9020000D01*
X33860000Y9621000D02*
X34850000Y9621000D01*
X31096000Y9421000D02*
X32180000Y9421000D01*
X31433000Y9981000D02*
X32180000Y9981000D01*
X33860000Y9701000D02*
X34805000Y9701000D01*
X30986000Y9060000D02*
X32180000Y9060000D01*
X31080000Y9381000D02*
X32180000Y9381000D01*
X31504000Y10061000D02*
X32180000Y10061000D01*
X31190000Y9621000D02*
X32180000Y9621000D01*
X33860000Y10141000D02*
X34458000Y10141000D01*
X32007000Y10461000D02*
X34033000Y10461000D01*
X31052000Y9300000D02*
X32180000Y9300000D01*
X30943000Y8740000D02*
X35097000Y8740000D01*
X33860000Y9220000D02*
X35014000Y9220000D01*
X31131000Y9501000D02*
X32180000Y9501000D01*
X32356000Y10621000D02*
X33684000Y10621000D01*
X31370000Y9901000D02*
X32180000Y9901000D01*
X33860000Y9381000D02*
X34960000Y9381000D01*
X30946000Y8780000D02*
X35094000Y8780000D01*
X31542000Y10101000D02*
X32180000Y10101000D01*
X31669000Y10221000D02*
X32180000Y10221000D01*
X31150000Y9541000D02*
X32180000Y9541000D01*
X33860000Y10021000D02*
X34572000Y10021000D01*
X31212000Y9661000D02*
X32180000Y9661000D01*
X31582000Y10141000D02*
X32180000Y10141000D01*
X33860000Y8940000D02*
X35076000Y8940000D01*
X31038000Y9260000D02*
X32180000Y9260000D01*
X31340000Y9861000D02*
X32180000Y9861000D01*
X33860000Y10341000D02*
X34220000Y10341000D01*
X33860000Y9981000D02*
X34607000Y9981000D01*
X33860000Y9661000D02*
X34828000Y9661000D01*
X31401000Y9941000D02*
X32180000Y9941000D01*
X31235000Y9701000D02*
X32180000Y9701000D01*
X33860000Y9901000D02*
X34670000Y9901000D01*
X32161000Y10541000D02*
X33879000Y10541000D01*
X30941000Y8700000D02*
X35099000Y8700000D01*
X33860000Y8900000D02*
X35082000Y8900000D01*
X30964000Y8940000D02*
X32180000Y8940000D01*
X31026000Y9220000D02*
X32180000Y9220000D01*
X31169000Y9581000D02*
X32180000Y9581000D01*
X33860000Y9501000D02*
X34909000Y9501000D01*
X30953000Y8860000D02*
X32180000Y8860000D01*
X31113000Y9461000D02*
X32180000Y9461000D01*
X30940000Y8620000D02*
X35100000Y8620000D01*
X31066000Y9341000D02*
X32180000Y9341000D01*
X31015000Y9180000D02*
X32180000Y9180000D01*
X33860000Y9100000D02*
X35045000Y9100000D01*
X33860000Y10421000D02*
X34100000Y10421000D01*
X33860000Y9541000D02*
X34890000Y9541000D01*
X33860000Y10181000D02*
X34416000Y10181000D01*
X31468000Y10021000D02*
X32180000Y10021000D01*
X31878000Y10381000D02*
X32180000Y10381000D01*
X33860000Y9941000D02*
X34639000Y9941000D01*
X35140000Y8620000D02*
G75*
G03*
X35140000Y8620000I-2120000J0D01*
G01*
%TO.C,C1*%
X26730000Y13870000D02*
X26730000Y19110000D01*
X23990000Y13870000D02*
X23990000Y19110000D01*
X23990000Y19110000D02*
X26730000Y19110000D01*
X23990000Y13870000D02*
X26730000Y13870000D01*
%TO.C,C2*%
X28400000Y16280000D02*
X32560000Y16280000D01*
X28446000Y16680000D02*
X29640000Y16680000D01*
X29712000Y18201000D02*
X31248000Y18201000D01*
X29540000Y18121000D02*
X31420000Y18121000D01*
X29085000Y14170199D02*
X29485000Y14170199D01*
X29226000Y17921000D02*
X29640000Y17921000D01*
X28406000Y16400000D02*
X32554000Y16400000D01*
X31320000Y17041000D02*
X32404000Y17041000D01*
X31320000Y18041000D02*
X31560000Y18041000D01*
X28464000Y16760000D02*
X29640000Y16760000D01*
X29002000Y17721000D02*
X29640000Y17721000D01*
X31320000Y16560000D02*
X32536000Y16560000D01*
X31320000Y17081000D02*
X32387000Y17081000D01*
X28409000Y16440000D02*
X29640000Y16440000D01*
X29400000Y18041000D02*
X29640000Y18041000D01*
X28540000Y17001000D02*
X29640000Y17001000D01*
X28403000Y16360000D02*
X32557000Y16360000D01*
X28424000Y16560000D02*
X29640000Y16560000D01*
X28486000Y16840000D02*
X29640000Y16840000D01*
X28695000Y17321000D02*
X29640000Y17321000D01*
X31320000Y17561000D02*
X32099000Y17561000D01*
X28964000Y17681000D02*
X29640000Y17681000D01*
X31320000Y17121000D02*
X32369000Y17121000D01*
X28400000Y16240000D02*
X32560000Y16240000D01*
X28573000Y17081000D02*
X29640000Y17081000D01*
X28893000Y17601000D02*
X29640000Y17601000D01*
X31320000Y17721000D02*
X31958000Y17721000D01*
X31320000Y17641000D02*
X32032000Y17641000D01*
X31320000Y17361000D02*
X32240000Y17361000D01*
X28512000Y16920000D02*
X29640000Y16920000D01*
X29621000Y18161000D02*
X31339000Y18161000D01*
X28418000Y16520000D02*
X29640000Y16520000D01*
X31320000Y16440000D02*
X32551000Y16440000D01*
X31320000Y17401000D02*
X32215000Y17401000D01*
X31320000Y16961000D02*
X32434000Y16961000D01*
X28861000Y17561000D02*
X29640000Y17561000D01*
X29176000Y17881000D02*
X29640000Y17881000D01*
X28928000Y17641000D02*
X29640000Y17641000D01*
X31320000Y16760000D02*
X32496000Y16760000D01*
X31320000Y17161000D02*
X32350000Y17161000D01*
X28800000Y17481000D02*
X29640000Y17481000D01*
X31320000Y16800000D02*
X32485000Y16800000D01*
X31320000Y17921000D02*
X31734000Y17921000D01*
X31320000Y16880000D02*
X32462000Y16880000D01*
X28772000Y17441000D02*
X29640000Y17441000D01*
X30110000Y18321000D02*
X30850000Y18321000D01*
X28556000Y17041000D02*
X29640000Y17041000D01*
X31320000Y16920000D02*
X32448000Y16920000D01*
X31320000Y18001000D02*
X31622000Y18001000D01*
X28438000Y16640000D02*
X29640000Y16640000D01*
X29338000Y18001000D02*
X29640000Y18001000D01*
X28650000Y17241000D02*
X29640000Y17241000D01*
X28830000Y17521000D02*
X29640000Y17521000D01*
X29129000Y17841000D02*
X29640000Y17841000D01*
X31320000Y16680000D02*
X32514000Y16680000D01*
X28401000Y16320000D02*
X32559000Y16320000D01*
X31320000Y16840000D02*
X32474000Y16840000D01*
X31320000Y17681000D02*
X31996000Y17681000D01*
X28591000Y17121000D02*
X29640000Y17121000D01*
X28672000Y17281000D02*
X29640000Y17281000D01*
X28475000Y16800000D02*
X29640000Y16800000D01*
X29943000Y18281000D02*
X31017000Y18281000D01*
X31320000Y17761000D02*
X31918000Y17761000D01*
X28455000Y16720000D02*
X29640000Y16720000D01*
X31320000Y16520000D02*
X32542000Y16520000D01*
X28413000Y16480000D02*
X29640000Y16480000D01*
X31320000Y17881000D02*
X31784000Y17881000D01*
X28720000Y17361000D02*
X29640000Y17361000D01*
X31320000Y17961000D02*
X31680000Y17961000D01*
X28629000Y17201000D02*
X29640000Y17201000D01*
X31320000Y17521000D02*
X32130000Y17521000D01*
X31320000Y17481000D02*
X32160000Y17481000D01*
X29816000Y18241000D02*
X31144000Y18241000D01*
X31320000Y17281000D02*
X32288000Y17281000D01*
X31320000Y16600000D02*
X32530000Y16600000D01*
X29084000Y17801000D02*
X29640000Y17801000D01*
X31320000Y17241000D02*
X32310000Y17241000D01*
X29467000Y18081000D02*
X31493000Y18081000D01*
X31320000Y17801000D02*
X31876000Y17801000D01*
X28745000Y17401000D02*
X29640000Y17401000D01*
X31320000Y16640000D02*
X32522000Y16640000D01*
X31320000Y17601000D02*
X32067000Y17601000D01*
X28430000Y16600000D02*
X29640000Y16600000D01*
X28610000Y17161000D02*
X29640000Y17161000D01*
X31320000Y16720000D02*
X32505000Y16720000D01*
X31320000Y16480000D02*
X32547000Y16480000D01*
X31320000Y17321000D02*
X32265000Y17321000D01*
X31320000Y17841000D02*
X31831000Y17841000D01*
X29280000Y17961000D02*
X29640000Y17961000D01*
X28526000Y16961000D02*
X29640000Y16961000D01*
X29042000Y17761000D02*
X29640000Y17761000D01*
X31320000Y17201000D02*
X32331000Y17201000D01*
X28498000Y16880000D02*
X29640000Y16880000D01*
X31320000Y17441000D02*
X32188000Y17441000D01*
X29285000Y13970199D02*
X29285000Y14370199D01*
X31320000Y17001000D02*
X32420000Y17001000D01*
X32600000Y16240000D02*
G75*
G03*
X32600000Y16240000I-2120000J0D01*
G01*
%TO.C,C4*%
X43865000Y22241000D02*
X47019000Y22241000D01*
X49501000Y21801000D02*
X52881000Y21801000D01*
X49501000Y21601000D02*
X52967000Y21601000D01*
X44094000Y22601000D02*
X47019000Y22601000D01*
X45315000Y23841000D02*
X51205000Y23841000D01*
X44303000Y22881000D02*
X52217000Y22881000D01*
X43798000Y22121000D02*
X47019000Y22121000D01*
X43181000Y19800000D02*
X53339000Y19800000D01*
X44368000Y22961000D02*
X52152000Y22961000D01*
X49501000Y21881000D02*
X52844000Y21881000D01*
X44913000Y23521000D02*
X51607000Y23521000D01*
X43375000Y21081000D02*
X47019000Y21081000D01*
X49501000Y21121000D02*
X53134000Y21121000D01*
X49501000Y21001000D02*
X53167000Y21001000D01*
X49501000Y22361000D02*
X52583000Y22361000D01*
X43225000Y20360000D02*
X47019000Y20360000D01*
X43570000Y21641000D02*
X47019000Y21641000D01*
X49501000Y20681000D02*
X53242000Y20681000D01*
X43506000Y21481000D02*
X47019000Y21481000D01*
X43206000Y20200000D02*
X53314000Y20200000D01*
X43423000Y21241000D02*
X47019000Y21241000D01*
X49501000Y20360000D02*
X53295000Y20360000D01*
X49501000Y20641000D02*
X53250000Y20641000D01*
X43676000Y21881000D02*
X47019000Y21881000D01*
X49501000Y21161000D02*
X53122000Y21161000D01*
X49501000Y22321000D02*
X52607000Y22321000D01*
X46882000Y24601000D02*
X49638000Y24601000D01*
X49501000Y20801000D02*
X53216000Y20801000D01*
X49501000Y21401000D02*
X53043000Y21401000D01*
X47398000Y24721000D02*
X49122000Y24721000D01*
X43353000Y21001000D02*
X47019000Y21001000D01*
X43304000Y20801000D02*
X47019000Y20801000D01*
X47030000Y24641000D02*
X49490000Y24641000D01*
X49501000Y20841000D02*
X53207000Y20841000D01*
X46316000Y24401000D02*
X50204000Y24401000D01*
X46135000Y24321000D02*
X50385000Y24321000D01*
X46051000Y24281000D02*
X50469000Y24281000D01*
X43230000Y20401000D02*
X47019000Y20401000D01*
X43962000Y22401000D02*
X47019000Y22401000D01*
X43202000Y20160000D02*
X53318000Y20160000D01*
X45206000Y23761000D02*
X51314000Y23761000D01*
X49501000Y21481000D02*
X53014000Y21481000D01*
X49501000Y21721000D02*
X52917000Y21721000D01*
X49501000Y21841000D02*
X52863000Y21841000D01*
X49501000Y21761000D02*
X52899000Y21761000D01*
X47661000Y24761000D02*
X48859000Y24761000D01*
X49501000Y21561000D02*
X52983000Y21561000D01*
X43449000Y21321000D02*
X47019000Y21321000D01*
X43657000Y21841000D02*
X47019000Y21841000D01*
X43735000Y22001000D02*
X47019000Y22001000D01*
X49501000Y21441000D02*
X53028000Y21441000D01*
X49501000Y20441000D02*
X53284000Y20441000D01*
X43820000Y22161000D02*
X47019000Y22161000D01*
X49501000Y22761000D02*
X52310000Y22761000D01*
X44740000Y23361000D02*
X51780000Y23361000D01*
X45821000Y24161000D02*
X50699000Y24161000D01*
X49501000Y20401000D02*
X53290000Y20401000D01*
X49501000Y22681000D02*
X52370000Y22681000D01*
X44620000Y23241000D02*
X51900000Y23241000D01*
X43220000Y20320000D02*
X53300000Y20320000D01*
X49501000Y21681000D02*
X52934000Y21681000D01*
X45260000Y23801000D02*
X51260000Y23801000D01*
X49501000Y21241000D02*
X53097000Y21241000D01*
X44066000Y22561000D02*
X47019000Y22561000D01*
X43463000Y21361000D02*
X47019000Y21361000D01*
X45006000Y23601000D02*
X51514000Y23601000D01*
X49501000Y22121000D02*
X52722000Y22121000D01*
X43210000Y20240000D02*
X53310000Y20240000D01*
X45551000Y24001000D02*
X50969000Y24001000D01*
X43256000Y20561000D02*
X47019000Y20561000D01*
X43386000Y21121000D02*
X47019000Y21121000D01*
X44436000Y23041000D02*
X52084000Y23041000D01*
X43363000Y21041000D02*
X47019000Y21041000D01*
X45054000Y23641000D02*
X51466000Y23641000D01*
X43249000Y20521000D02*
X47019000Y20521000D01*
X43603000Y21721000D02*
X47019000Y21721000D01*
X49501000Y22441000D02*
X52533000Y22441000D01*
X44544000Y23161000D02*
X51976000Y23161000D01*
X43195000Y20080000D02*
X53325000Y20080000D01*
X49501000Y21521000D02*
X52998000Y21521000D01*
X43183000Y19880000D02*
X53337000Y19880000D01*
X43477000Y21401000D02*
X47019000Y21401000D01*
X45104000Y23681000D02*
X51416000Y23681000D01*
X45385000Y14200354D02*
X45385000Y15200354D01*
X43398000Y21161000D02*
X47019000Y21161000D01*
X43889000Y22281000D02*
X47019000Y22281000D01*
X49501000Y21641000D02*
X52950000Y21641000D01*
X43313000Y20841000D02*
X47019000Y20841000D01*
X43263000Y20601000D02*
X47019000Y20601000D01*
X45750000Y24121000D02*
X50770000Y24121000D01*
X49501000Y21361000D02*
X53057000Y21361000D01*
X44240000Y22801000D02*
X47019000Y22801000D01*
X43295000Y20761000D02*
X47019000Y20761000D01*
X43180000Y19720000D02*
X53340000Y19720000D01*
X49501000Y21201000D02*
X53110000Y21201000D01*
X49501000Y21281000D02*
X53084000Y21281000D01*
X44885000Y14700354D02*
X45885000Y14700354D01*
X49501000Y22401000D02*
X52558000Y22401000D01*
X43777000Y22081000D02*
X47019000Y22081000D01*
X44699000Y23321000D02*
X51821000Y23321000D01*
X45154000Y23721000D02*
X51366000Y23721000D01*
X43270000Y20641000D02*
X47019000Y20641000D01*
X46518000Y24481000D02*
X50002000Y24481000D01*
X44150000Y22681000D02*
X47019000Y22681000D01*
X43937000Y22361000D02*
X47019000Y22361000D01*
X49501000Y21961000D02*
X52805000Y21961000D01*
X49501000Y22241000D02*
X52655000Y22241000D01*
X43182000Y19840000D02*
X53338000Y19840000D01*
X49501000Y22201000D02*
X52677000Y22201000D01*
X49501000Y22481000D02*
X52507000Y22481000D01*
X49501000Y20601000D02*
X53257000Y20601000D01*
X49501000Y21321000D02*
X53071000Y21321000D01*
X44122000Y22641000D02*
X47019000Y22641000D01*
X49501000Y20721000D02*
X53234000Y20721000D01*
X45430000Y23921000D02*
X51090000Y23921000D01*
X43913000Y22321000D02*
X47019000Y22321000D01*
X43696000Y21921000D02*
X47019000Y21921000D01*
X43332000Y20921000D02*
X47019000Y20921000D01*
X44507000Y23121000D02*
X52013000Y23121000D01*
X49501000Y20761000D02*
X53225000Y20761000D01*
X44959000Y23561000D02*
X51561000Y23561000D01*
X46630000Y24521000D02*
X49890000Y24521000D01*
X43492000Y21441000D02*
X47019000Y21441000D01*
X49501000Y22161000D02*
X52700000Y22161000D01*
X49501000Y22721000D02*
X52340000Y22721000D01*
X43286000Y20721000D02*
X47019000Y20721000D01*
X44013000Y22481000D02*
X47019000Y22481000D01*
X46750000Y24561000D02*
X49770000Y24561000D01*
X43586000Y21681000D02*
X47019000Y21681000D01*
X44471000Y23081000D02*
X52049000Y23081000D01*
X43639000Y21801000D02*
X47019000Y21801000D01*
X45895000Y24201000D02*
X50625000Y24201000D01*
X43522000Y21521000D02*
X47019000Y21521000D01*
X43537000Y21561000D02*
X47019000Y21561000D01*
X49501000Y20921000D02*
X53188000Y20921000D01*
X44335000Y22921000D02*
X52185000Y22921000D01*
X49501000Y20961000D02*
X53178000Y20961000D01*
X43410000Y21201000D02*
X47019000Y21201000D01*
X45681000Y24081000D02*
X50839000Y24081000D01*
X45971000Y24241000D02*
X50549000Y24241000D01*
X46223000Y24361000D02*
X50297000Y24361000D01*
X43242000Y20481000D02*
X47019000Y20481000D01*
X45615000Y24041000D02*
X50905000Y24041000D01*
X49501000Y22801000D02*
X52280000Y22801000D01*
X44868000Y23481000D02*
X51652000Y23481000D01*
X44039000Y22521000D02*
X47019000Y22521000D01*
X49501000Y22641000D02*
X52398000Y22641000D01*
X49501000Y21041000D02*
X53157000Y21041000D01*
X43843000Y22201000D02*
X47019000Y22201000D01*
X43215000Y20280000D02*
X53305000Y20280000D01*
X43187000Y19960000D02*
X53333000Y19960000D01*
X45490000Y23961000D02*
X51030000Y23961000D01*
X44271000Y22841000D02*
X52249000Y22841000D01*
X43987000Y22441000D02*
X47019000Y22441000D01*
X49501000Y21081000D02*
X53145000Y21081000D01*
X49501000Y22001000D02*
X52785000Y22001000D01*
X44402000Y23001000D02*
X52118000Y23001000D01*
X44210000Y22761000D02*
X47019000Y22761000D01*
X43236000Y20441000D02*
X47019000Y20441000D01*
X49501000Y20881000D02*
X53198000Y20881000D01*
X44180000Y22721000D02*
X47019000Y22721000D01*
X43715000Y21961000D02*
X47019000Y21961000D01*
X43553000Y21601000D02*
X47019000Y21601000D01*
X43342000Y20961000D02*
X47019000Y20961000D01*
X49501000Y22521000D02*
X52481000Y22521000D01*
X49501000Y20561000D02*
X53264000Y20561000D01*
X49501000Y22601000D02*
X52426000Y22601000D01*
X49501000Y21921000D02*
X52824000Y21921000D01*
X44581000Y23201000D02*
X51939000Y23201000D01*
X49501000Y20521000D02*
X53271000Y20521000D01*
X46414000Y24441000D02*
X50106000Y24441000D01*
X45371000Y23881000D02*
X51149000Y23881000D01*
X43198000Y20120000D02*
X53322000Y20120000D01*
X47198000Y24681000D02*
X49322000Y24681000D01*
X43180000Y19680000D02*
X53340000Y19680000D01*
X44782000Y23401000D02*
X51738000Y23401000D01*
X43192000Y20040000D02*
X53328000Y20040000D01*
X43621000Y21761000D02*
X47019000Y21761000D01*
X49501000Y22561000D02*
X52454000Y22561000D01*
X43180000Y19760000D02*
X53340000Y19760000D01*
X44824000Y23441000D02*
X51696000Y23441000D01*
X49501000Y22281000D02*
X52631000Y22281000D01*
X43436000Y21281000D02*
X47019000Y21281000D01*
X49501000Y20481000D02*
X53278000Y20481000D01*
X49501000Y22081000D02*
X52743000Y22081000D01*
X43185000Y19920000D02*
X53335000Y19920000D01*
X43756000Y22041000D02*
X47019000Y22041000D01*
X43322000Y20881000D02*
X47019000Y20881000D01*
X49501000Y22041000D02*
X52764000Y22041000D01*
X43190000Y20000000D02*
X53330000Y20000000D01*
X44659000Y23281000D02*
X51861000Y23281000D01*
X43278000Y20681000D02*
X47019000Y20681000D01*
X53380000Y19680000D02*
G75*
G03*
X53380000Y19680000I-5120000J0D01*
G01*
%TO.C,R1*%
X18950000Y23590000D02*
X18950000Y17050000D01*
X21690000Y23590000D02*
X18950000Y23590000D01*
X21690000Y17050000D02*
X21690000Y23590000D01*
X20320000Y24360000D02*
X20320000Y23590000D01*
X20320000Y16280000D02*
X20320000Y17050000D01*
X18950000Y17050000D02*
X21690000Y17050000D01*
%TO.C,U2*%
X26700000Y11030000D02*
X26700000Y9770000D01*
X26700000Y4210000D02*
X26700000Y5470000D01*
X20690000Y11030000D02*
X26700000Y11030000D01*
X22940000Y4210000D02*
X26700000Y4210000D01*
%TD*%
M02*
