%TF.GenerationSoftware,KiCad,Pcbnew,6.0.6-3a73a75311~116~ubuntu20.04.1*%
%TF.CreationDate,2022-07-22T12:46:40-05:00*%
%TF.ProjectId,esp_ha_integrator,6573705f-6861-45f6-996e-746567726174,rev?*%
%TF.SameCoordinates,PX6a95280PY6350ce0*%
%TF.FileFunction,Copper,L2,Bot*%
%TF.FilePolarity,Positive*%
%FSLAX46Y46*%
G04 Gerber Fmt 4.6, Leading zero omitted, Abs format (unit mm)*
G04 Created by KiCad (PCBNEW 6.0.6-3a73a75311~116~ubuntu20.04.1) date 2022-07-22 12:46:40*
%MOMM*%
%LPD*%
G01*
G04 APERTURE LIST*
G04 Aperture macros list*
%AMRoundRect*
0 Rectangle with rounded corners*
0 $1 Rounding radius*
0 $2 $3 $4 $5 $6 $7 $8 $9 X,Y pos of 4 corners*
0 Add a 4 corners polygon primitive as box body*
4,1,4,$2,$3,$4,$5,$6,$7,$8,$9,$2,$3,0*
0 Add four circle primitives for the rounded corners*
1,1,$1+$1,$2,$3*
1,1,$1+$1,$4,$5*
1,1,$1+$1,$6,$7*
1,1,$1+$1,$8,$9*
0 Add four rect primitives between the rounded corners*
20,1,$1+$1,$2,$3,$4,$5,0*
20,1,$1+$1,$4,$5,$6,$7,0*
20,1,$1+$1,$6,$7,$8,$9,0*
20,1,$1+$1,$8,$9,$2,$3,0*%
G04 Aperture macros list end*
%TA.AperFunction,ComponentPad*%
%ADD10R,1.500000X1.500000*%
%TD*%
%TA.AperFunction,ComponentPad*%
%ADD11C,1.500000*%
%TD*%
%TA.AperFunction,ComponentPad*%
%ADD12RoundRect,0.250000X0.725000X-0.600000X0.725000X0.600000X-0.725000X0.600000X-0.725000X-0.600000X0*%
%TD*%
%TA.AperFunction,ComponentPad*%
%ADD13O,1.950000X1.700000*%
%TD*%
%TA.AperFunction,ComponentPad*%
%ADD14C,1.524000*%
%TD*%
%TA.AperFunction,ComponentPad*%
%ADD15R,1.050000X1.500000*%
%TD*%
%TA.AperFunction,ComponentPad*%
%ADD16O,1.050000X1.500000*%
%TD*%
%TA.AperFunction,ComponentPad*%
%ADD17C,1.600000*%
%TD*%
%TA.AperFunction,ComponentPad*%
%ADD18O,1.600000X1.600000*%
%TD*%
%TA.AperFunction,ComponentPad*%
%ADD19R,1.400000X1.400000*%
%TD*%
%TA.AperFunction,ComponentPad*%
%ADD20C,1.400000*%
%TD*%
%TA.AperFunction,ComponentPad*%
%ADD21R,2.000000X2.000000*%
%TD*%
%TA.AperFunction,ComponentPad*%
%ADD22C,2.000000*%
%TD*%
%TA.AperFunction,Conductor*%
%ADD23C,0.400000*%
%TD*%
G04 APERTURE END LIST*
D10*
%TO.P,U1,1,GND*%
%TO.N,GND*%
X7395000Y6840000D03*
D11*
%TO.P,U1,2,IO2*%
%TO.N,DataLow*%
X9935000Y6840000D03*
%TO.P,U1,3,IO0*%
%TO.N,unconnected-(U1-Pad3)*%
X12475000Y6840000D03*
%TO.P,U1,4,RXD*%
%TO.N,unconnected-(U1-Pad4)*%
X15015000Y6840000D03*
%TO.P,U1,5,TXD*%
%TO.N,unconnected-(U1-Pad5)*%
X7395000Y4300000D03*
%TO.P,U1,6,EN*%
%TO.N,unconnected-(U1-Pad6)*%
X9935000Y4300000D03*
%TO.P,U1,7,~{RST}*%
%TO.N,unconnected-(U1-Pad7)*%
X12475000Y4300000D03*
%TO.P,U1,8,VCC*%
%TO.N,+3V3*%
X15015000Y4300000D03*
%TD*%
D12*
%TO.P,J2,1,Pin_1*%
%TO.N,+5V*%
X57510000Y20360000D03*
D13*
%TO.P,J2,2,Pin_2*%
%TO.N,DataHigh*%
X57510000Y22860000D03*
%TO.P,J2,3,Pin_3*%
%TO.N,GND*%
X57510000Y25360000D03*
%TD*%
D14*
%TO.P,J1,1,Pin_1*%
%TO.N,GND*%
X58420000Y8900000D03*
%TO.P,J1,2,Pin_2*%
%TO.N,+5V*%
X58420000Y11420000D03*
%TD*%
D15*
%TO.P,Q1,1,S*%
%TO.N,DataLow*%
X27940000Y22860000D03*
D16*
%TO.P,Q1,2,G*%
%TO.N,+3V3*%
X29210000Y22860000D03*
%TO.P,Q1,3,D*%
%TO.N,DataHigh*%
X30480000Y22860000D03*
%TD*%
D17*
%TO.P,R2,1*%
%TO.N,+5V*%
X38100000Y15240000D03*
D18*
%TO.P,R2,2*%
%TO.N,DataHigh*%
X38100000Y25400000D03*
%TD*%
D19*
%TO.P,C3,1*%
%TO.N,+5V*%
X33020000Y7620000D03*
D20*
%TO.P,C3,2*%
%TO.N,GND*%
X33020000Y9620000D03*
%TD*%
D17*
%TO.P,C1,1*%
%TO.N,+3V3*%
X25360000Y15240000D03*
%TO.P,C1,2*%
%TO.N,GND*%
X25360000Y17740000D03*
%TD*%
D19*
%TO.P,C2,1*%
%TO.N,+3V3*%
X30480000Y15240000D03*
D20*
%TO.P,C2,2*%
%TO.N,GND*%
X30480000Y17240000D03*
%TD*%
D21*
%TO.P,C4,1*%
%TO.N,+5V*%
X48260000Y17780000D03*
D22*
%TO.P,C4,2*%
%TO.N,GND*%
X48260000Y21580000D03*
%TD*%
D17*
%TO.P,R1,1*%
%TO.N,+3V3*%
X20320000Y15240000D03*
D18*
%TO.P,R1,2*%
%TO.N,DataLow*%
X20320000Y25400000D03*
%TD*%
D23*
%TO.N,+5V*%
X38100000Y15240000D02*
X38100000Y9398000D01*
X38100000Y9398000D02*
X36322000Y7620000D01*
X36322000Y7620000D02*
X33020000Y7620000D01*
X48260000Y17780000D02*
X40640000Y17780000D01*
X40640000Y17780000D02*
X38100000Y15240000D01*
X57510000Y20360000D02*
X54930000Y17780000D01*
X54930000Y17780000D02*
X48260000Y17780000D01*
%TO.N,+3V3*%
X22080000Y4300000D02*
X15015000Y4300000D01*
X30480000Y15240000D02*
X25400000Y10160000D01*
X25400000Y7620000D02*
X22080000Y4300000D01*
X25400000Y10160000D02*
X25400000Y7620000D01*
%TO.N,DataLow*%
X20320000Y20320000D02*
X9935000Y9935000D01*
X20320000Y25400000D02*
X20320000Y20320000D01*
X9935000Y9935000D02*
X9935000Y6840000D01*
%TD*%
%TA.AperFunction,Conductor*%
%TO.N,GND*%
G36*
X67958843Y29951793D02*
G01*
X68028084Y29896574D01*
X68066511Y29816782D01*
X68071500Y29772500D01*
X68071500Y707500D01*
X68051793Y621157D01*
X67996574Y551916D01*
X67916782Y513489D01*
X67872500Y508500D01*
X707500Y508500D01*
X621157Y528207D01*
X551916Y583426D01*
X513489Y663218D01*
X508500Y707500D01*
X508500Y4300000D01*
X6131693Y4300000D01*
X6150885Y4080629D01*
X6153133Y4072241D01*
X6205631Y3876315D01*
X6205633Y3876309D01*
X6207880Y3867924D01*
X6300944Y3668347D01*
X6427251Y3487962D01*
X6582962Y3332251D01*
X6763346Y3205944D01*
X6962924Y3112880D01*
X6971312Y3110633D01*
X6971313Y3110632D01*
X7021377Y3097217D01*
X7175629Y3055885D01*
X7184274Y3055129D01*
X7184278Y3055128D01*
X7386347Y3037450D01*
X7395000Y3036693D01*
X7403653Y3037450D01*
X7605722Y3055128D01*
X7605726Y3055129D01*
X7614371Y3055885D01*
X7768623Y3097217D01*
X7818687Y3110632D01*
X7818688Y3110633D01*
X7827076Y3112880D01*
X8026654Y3205944D01*
X8207038Y3332251D01*
X8362749Y3487962D01*
X8489056Y3668347D01*
X8492687Y3676134D01*
X8552898Y3741027D01*
X8635339Y3773383D01*
X8723655Y3766765D01*
X8800353Y3722484D01*
X8837307Y3676146D01*
X8840944Y3668347D01*
X8967251Y3487962D01*
X9122962Y3332251D01*
X9303346Y3205944D01*
X9502924Y3112880D01*
X9511312Y3110633D01*
X9511313Y3110632D01*
X9561377Y3097217D01*
X9715629Y3055885D01*
X9724274Y3055129D01*
X9724278Y3055128D01*
X9926347Y3037450D01*
X9935000Y3036693D01*
X9943653Y3037450D01*
X10145722Y3055128D01*
X10145726Y3055129D01*
X10154371Y3055885D01*
X10308623Y3097217D01*
X10358687Y3110632D01*
X10358688Y3110633D01*
X10367076Y3112880D01*
X10566654Y3205944D01*
X10747038Y3332251D01*
X10902749Y3487962D01*
X11029056Y3668347D01*
X11032687Y3676134D01*
X11092898Y3741027D01*
X11175339Y3773383D01*
X11263655Y3766765D01*
X11340353Y3722484D01*
X11377307Y3676146D01*
X11380944Y3668347D01*
X11507251Y3487962D01*
X11662962Y3332251D01*
X11843346Y3205944D01*
X12042924Y3112880D01*
X12051312Y3110633D01*
X12051313Y3110632D01*
X12101377Y3097217D01*
X12255629Y3055885D01*
X12264274Y3055129D01*
X12264278Y3055128D01*
X12466347Y3037450D01*
X12475000Y3036693D01*
X12483653Y3037450D01*
X12685722Y3055128D01*
X12685726Y3055129D01*
X12694371Y3055885D01*
X12848623Y3097217D01*
X12898687Y3110632D01*
X12898688Y3110633D01*
X12907076Y3112880D01*
X13106654Y3205944D01*
X13287038Y3332251D01*
X13442749Y3487962D01*
X13569056Y3668347D01*
X13572687Y3676134D01*
X13632898Y3741027D01*
X13715339Y3773383D01*
X13803655Y3766765D01*
X13880353Y3722484D01*
X13917307Y3676146D01*
X13920944Y3668347D01*
X14047251Y3487962D01*
X14202962Y3332251D01*
X14383346Y3205944D01*
X14582924Y3112880D01*
X14591312Y3110633D01*
X14591313Y3110632D01*
X14641377Y3097217D01*
X14795629Y3055885D01*
X14804274Y3055129D01*
X14804278Y3055128D01*
X15006347Y3037450D01*
X15015000Y3036693D01*
X15023653Y3037450D01*
X15225722Y3055128D01*
X15225726Y3055129D01*
X15234371Y3055885D01*
X15388623Y3097217D01*
X15438687Y3110632D01*
X15438688Y3110633D01*
X15447076Y3112880D01*
X15646654Y3205944D01*
X15827038Y3332251D01*
X15982749Y3487962D01*
X15987732Y3495078D01*
X15987735Y3495082D01*
X15995829Y3506642D01*
X16061497Y3566066D01*
X16146445Y3591114D01*
X16158840Y3591500D01*
X22048602Y3591500D01*
X22062136Y3591039D01*
X22080414Y3589793D01*
X22117352Y3587275D01*
X22178404Y3597930D01*
X22188710Y3599452D01*
X22250242Y3606898D01*
X22261473Y3611142D01*
X22268036Y3612754D01*
X22274460Y3614694D01*
X22286284Y3616757D01*
X22343048Y3641675D01*
X22352672Y3645602D01*
X22399432Y3663271D01*
X22399438Y3663274D01*
X22410656Y3667513D01*
X22420542Y3674307D01*
X22426516Y3677430D01*
X22432319Y3680862D01*
X22443305Y3685685D01*
X22467301Y3704098D01*
X22492479Y3723418D01*
X22500908Y3729542D01*
X22517619Y3741027D01*
X22551981Y3764643D01*
X22592038Y3809602D01*
X22599905Y3817935D01*
X25878769Y7096799D01*
X25888665Y7106044D01*
X25921344Y7134552D01*
X25930385Y7142439D01*
X25937285Y7152256D01*
X25966028Y7193153D01*
X25972238Y7201515D01*
X26003074Y7240842D01*
X26010476Y7250282D01*
X26015412Y7261215D01*
X26018906Y7266984D01*
X26022090Y7272922D01*
X26028990Y7282739D01*
X26033347Y7293915D01*
X26033350Y7293920D01*
X26051507Y7340490D01*
X26055544Y7350094D01*
X26076107Y7395637D01*
X26081045Y7406573D01*
X26083232Y7418369D01*
X26085245Y7424793D01*
X26086923Y7431329D01*
X26091282Y7442509D01*
X26094082Y7463773D01*
X26099372Y7503960D01*
X26101003Y7514254D01*
X26110110Y7563390D01*
X26110110Y7563392D01*
X26112296Y7575186D01*
X26111339Y7591791D01*
X26108830Y7635293D01*
X26108500Y7646749D01*
X26108500Y9611347D01*
X31808143Y9611347D01*
X31825051Y9418081D01*
X31828056Y9401044D01*
X31878268Y9213651D01*
X31884186Y9197392D01*
X31966176Y9021562D01*
X31974827Y9006578D01*
X32006560Y8961259D01*
X32039942Y8879228D01*
X32034426Y8790836D01*
X31991104Y8713592D01*
X31977608Y8701288D01*
X31968082Y8691762D01*
X31956739Y8683261D01*
X31869385Y8566705D01*
X31818255Y8430316D01*
X31811500Y8368134D01*
X31811500Y6871866D01*
X31812082Y6866511D01*
X31812082Y6866506D01*
X31814022Y6848653D01*
X31818255Y6809684D01*
X31869385Y6673295D01*
X31956739Y6556739D01*
X32073295Y6469385D01*
X32209684Y6418255D01*
X32247760Y6414119D01*
X32266506Y6412082D01*
X32266511Y6412082D01*
X32271866Y6411500D01*
X33768134Y6411500D01*
X33773489Y6412082D01*
X33773494Y6412082D01*
X33792240Y6414119D01*
X33830316Y6418255D01*
X33966705Y6469385D01*
X34083261Y6556739D01*
X34170615Y6673295D01*
X34211500Y6782355D01*
X34260262Y6856285D01*
X34336273Y6901738D01*
X34397837Y6911500D01*
X36290602Y6911500D01*
X36304136Y6911039D01*
X36322414Y6909793D01*
X36359352Y6907275D01*
X36420404Y6917930D01*
X36430710Y6919452D01*
X36492242Y6926898D01*
X36503473Y6931142D01*
X36510036Y6932754D01*
X36516460Y6934694D01*
X36528284Y6936757D01*
X36585048Y6961675D01*
X36594672Y6965602D01*
X36641432Y6983271D01*
X36641438Y6983274D01*
X36652656Y6987513D01*
X36662542Y6994307D01*
X36668516Y6997430D01*
X36674319Y7000862D01*
X36685305Y7005685D01*
X36734479Y7043418D01*
X36742908Y7049542D01*
X36769414Y7067759D01*
X36793981Y7084643D01*
X36834038Y7129602D01*
X36841905Y7137935D01*
X38578769Y8874799D01*
X38588665Y8884044D01*
X38621342Y8912550D01*
X38621343Y8912551D01*
X38630385Y8920439D01*
X38666021Y8971144D01*
X38672224Y8979496D01*
X38703071Y9018836D01*
X38703074Y9018840D01*
X38710477Y9028282D01*
X38715414Y9039216D01*
X38718905Y9044980D01*
X38722092Y9050924D01*
X38728990Y9060739D01*
X38751507Y9118490D01*
X38755543Y9128092D01*
X38762726Y9144000D01*
X44360526Y9144000D01*
X44380391Y8891597D01*
X44382216Y8883996D01*
X44382216Y8883995D01*
X44433131Y8671918D01*
X44439495Y8645409D01*
X44536384Y8411498D01*
X44668672Y8195624D01*
X44673748Y8189681D01*
X44673750Y8189678D01*
X44763910Y8084115D01*
X44833102Y8003102D01*
X44839044Y7998027D01*
X45014932Y7847804D01*
X45025624Y7838672D01*
X45241498Y7706384D01*
X45475409Y7609495D01*
X45483008Y7607671D01*
X45483013Y7607669D01*
X45713995Y7552216D01*
X45721597Y7550391D01*
X45809330Y7543486D01*
X45906909Y7535806D01*
X45906917Y7535806D01*
X45910801Y7535500D01*
X46037199Y7535500D01*
X46041083Y7535806D01*
X46041091Y7535806D01*
X46138670Y7543486D01*
X46226403Y7550391D01*
X46234005Y7552216D01*
X46464987Y7607669D01*
X46464992Y7607671D01*
X46472591Y7609495D01*
X46706502Y7706384D01*
X46922376Y7838672D01*
X46923817Y7839903D01*
X57725110Y7839903D01*
X57735707Y7828763D01*
X57775456Y7800931D01*
X57790452Y7792274D01*
X57976096Y7705706D01*
X57992372Y7699782D01*
X58190233Y7646765D01*
X58207276Y7643760D01*
X58411347Y7625906D01*
X58428653Y7625906D01*
X58632724Y7643760D01*
X58649767Y7646765D01*
X58847628Y7699782D01*
X58863904Y7705706D01*
X59049548Y7792274D01*
X59064544Y7800931D01*
X59102238Y7827325D01*
X59115026Y7841456D01*
X59106524Y7854266D01*
X58435855Y8524935D01*
X58419380Y8535287D01*
X58411869Y8532659D01*
X57735250Y7856040D01*
X57725110Y7839903D01*
X46923817Y7839903D01*
X46933069Y7847804D01*
X47108956Y7998027D01*
X47114898Y8003102D01*
X47184090Y8084115D01*
X47274250Y8189678D01*
X47274252Y8189681D01*
X47279328Y8195624D01*
X47411616Y8411498D01*
X47508505Y8645409D01*
X47514870Y8671918D01*
X47565784Y8883995D01*
X47565784Y8883996D01*
X47567549Y8891347D01*
X57145906Y8891347D01*
X57163760Y8687276D01*
X57166765Y8670233D01*
X57219784Y8472363D01*
X57225701Y8456106D01*
X57312278Y8270444D01*
X57320926Y8255464D01*
X57347325Y8217761D01*
X57361455Y8204975D01*
X57374269Y8213479D01*
X58044935Y8884145D01*
X58054508Y8899380D01*
X58784713Y8899380D01*
X58787341Y8891869D01*
X59463960Y8215250D01*
X59480097Y8205110D01*
X59491236Y8215706D01*
X59519074Y8255464D01*
X59527722Y8270444D01*
X59614299Y8456106D01*
X59620216Y8472363D01*
X59673235Y8670233D01*
X59676240Y8687276D01*
X59694094Y8891347D01*
X59694094Y8908653D01*
X59676240Y9112724D01*
X59673235Y9129767D01*
X59620216Y9327637D01*
X59614299Y9343894D01*
X59527722Y9529556D01*
X59519074Y9544536D01*
X59492675Y9582239D01*
X59478545Y9595025D01*
X59465731Y9586521D01*
X58795065Y8915855D01*
X58784713Y8899380D01*
X58054508Y8899380D01*
X58055287Y8900620D01*
X58052659Y8908131D01*
X57376040Y9584750D01*
X57359903Y9594890D01*
X57348764Y9584294D01*
X57320926Y9544536D01*
X57312278Y9529556D01*
X57225701Y9343894D01*
X57219784Y9327637D01*
X57166765Y9129767D01*
X57163760Y9112724D01*
X57145906Y8908653D01*
X57145906Y8891347D01*
X47567549Y8891347D01*
X47567609Y8891597D01*
X47587474Y9144000D01*
X47567609Y9396403D01*
X47565784Y9404005D01*
X47510331Y9634987D01*
X47510329Y9634992D01*
X47508505Y9642591D01*
X47411616Y9876502D01*
X47279328Y10092376D01*
X47244418Y10133251D01*
X47119973Y10278956D01*
X47114898Y10284898D01*
X47070631Y10322706D01*
X46928322Y10444250D01*
X46928319Y10444252D01*
X46922376Y10449328D01*
X46706502Y10581616D01*
X46472591Y10678505D01*
X46464992Y10680329D01*
X46464987Y10680331D01*
X46234005Y10735784D01*
X46234004Y10735784D01*
X46226403Y10737609D01*
X46138670Y10744514D01*
X46041091Y10752194D01*
X46041083Y10752194D01*
X46037199Y10752500D01*
X45910801Y10752500D01*
X45906917Y10752194D01*
X45906909Y10752194D01*
X45809330Y10744514D01*
X45721597Y10737609D01*
X45713996Y10735784D01*
X45713995Y10735784D01*
X45483013Y10680331D01*
X45483008Y10680329D01*
X45475409Y10678505D01*
X45241498Y10581616D01*
X45025624Y10449328D01*
X45019681Y10444252D01*
X45019678Y10444250D01*
X44877369Y10322706D01*
X44833102Y10284898D01*
X44828027Y10278956D01*
X44703583Y10133251D01*
X44668672Y10092376D01*
X44536384Y9876502D01*
X44439495Y9642591D01*
X44437671Y9634992D01*
X44437669Y9634987D01*
X44382216Y9404005D01*
X44380391Y9396403D01*
X44360526Y9144000D01*
X38762726Y9144000D01*
X38781045Y9184573D01*
X38783231Y9196366D01*
X38785245Y9202792D01*
X38786924Y9209331D01*
X38791282Y9220509D01*
X38792847Y9232395D01*
X38792848Y9232400D01*
X38799371Y9281955D01*
X38801002Y9292250D01*
X38810110Y9341391D01*
X38810110Y9341394D01*
X38812296Y9353187D01*
X38808830Y9413300D01*
X38808500Y9424755D01*
X38808500Y11420000D01*
X57144647Y11420000D01*
X57164022Y11198537D01*
X57221560Y10983804D01*
X57315512Y10782324D01*
X57443023Y10600219D01*
X57600219Y10443023D01*
X57728092Y10353485D01*
X57772049Y10322706D01*
X57831473Y10257039D01*
X57856521Y10172091D01*
X57842230Y10084688D01*
X57791432Y10012141D01*
X57772048Y9996683D01*
X57737763Y9972676D01*
X57724975Y9958545D01*
X57733479Y9945731D01*
X58404145Y9275065D01*
X58420620Y9264713D01*
X58428131Y9267341D01*
X59104750Y9943960D01*
X59114890Y9960097D01*
X59104292Y9971238D01*
X59067951Y9996684D01*
X59008527Y10062351D01*
X58983479Y10147299D01*
X58997770Y10234701D01*
X59048568Y10307248D01*
X59067951Y10322706D01*
X59111908Y10353485D01*
X59239781Y10443023D01*
X59396977Y10600219D01*
X59524488Y10782324D01*
X59618440Y10983804D01*
X59675978Y11198537D01*
X59695353Y11420000D01*
X59675978Y11641463D01*
X59618440Y11856196D01*
X59524488Y12057676D01*
X59396977Y12239781D01*
X59239781Y12396977D01*
X59057677Y12524488D01*
X58856196Y12618440D01*
X58847799Y12620690D01*
X58649854Y12673730D01*
X58649850Y12673731D01*
X58641463Y12675978D01*
X58632814Y12676735D01*
X58632812Y12676735D01*
X58428653Y12694596D01*
X58420000Y12695353D01*
X58411347Y12694596D01*
X58207188Y12676735D01*
X58207186Y12676735D01*
X58198537Y12675978D01*
X58190150Y12673731D01*
X58190146Y12673730D01*
X57992201Y12620690D01*
X57983804Y12618440D01*
X57782324Y12524488D01*
X57600219Y12396977D01*
X57443023Y12239781D01*
X57315512Y12057676D01*
X57221560Y11856196D01*
X57164022Y11641463D01*
X57144647Y11420000D01*
X38808500Y11420000D01*
X38808500Y14035121D01*
X38828207Y14121464D01*
X38883426Y14190705D01*
X38893358Y14198132D01*
X38900848Y14203377D01*
X38944300Y14233802D01*
X39106198Y14395700D01*
X39237523Y14583251D01*
X39334284Y14790757D01*
X39342782Y14822473D01*
X39391295Y15003522D01*
X39391296Y15003526D01*
X39393543Y15011913D01*
X39395087Y15029555D01*
X39412741Y15231347D01*
X39413498Y15240000D01*
X39396523Y15434025D01*
X39408630Y15521756D01*
X39454052Y15592082D01*
X40875185Y17013214D01*
X40950174Y17060333D01*
X41015899Y17071500D01*
X46552500Y17071500D01*
X46638843Y17051793D01*
X46708084Y16996574D01*
X46746511Y16916782D01*
X46751500Y16872500D01*
X46751500Y16731866D01*
X46758255Y16669684D01*
X46809385Y16533295D01*
X46896739Y16416739D01*
X47013295Y16329385D01*
X47149684Y16278255D01*
X47187760Y16274119D01*
X47206506Y16272082D01*
X47206511Y16272082D01*
X47211866Y16271500D01*
X49308134Y16271500D01*
X49313489Y16272082D01*
X49313494Y16272082D01*
X49332240Y16274119D01*
X49370316Y16278255D01*
X49506705Y16329385D01*
X49623261Y16416739D01*
X49710615Y16533295D01*
X49761745Y16669684D01*
X49768500Y16731866D01*
X49768500Y16872500D01*
X49788207Y16958843D01*
X49843426Y17028084D01*
X49923218Y17066511D01*
X49967500Y17071500D01*
X54898602Y17071500D01*
X54912136Y17071039D01*
X54930414Y17069793D01*
X54967352Y17067275D01*
X55028404Y17077930D01*
X55038710Y17079452D01*
X55100242Y17086898D01*
X55111473Y17091142D01*
X55118036Y17092754D01*
X55124460Y17094694D01*
X55136284Y17096757D01*
X55193048Y17121675D01*
X55202672Y17125602D01*
X55249432Y17143271D01*
X55249438Y17143274D01*
X55260656Y17147513D01*
X55270542Y17154307D01*
X55276516Y17157430D01*
X55282319Y17160862D01*
X55293305Y17165685D01*
X55342479Y17203418D01*
X55350908Y17209542D01*
X55359632Y17215538D01*
X55401981Y17244643D01*
X55442038Y17289602D01*
X55449905Y17297935D01*
X57095184Y18943214D01*
X57170172Y18990333D01*
X57235898Y19001500D01*
X58285400Y19001500D01*
X58338133Y19006971D01*
X58380336Y19011350D01*
X58380339Y19011351D01*
X58391166Y19012474D01*
X58467829Y19038051D01*
X58547977Y19064790D01*
X58547980Y19064792D01*
X58558946Y19068450D01*
X58709348Y19161522D01*
X58834305Y19286697D01*
X58927115Y19437262D01*
X58982797Y19605139D01*
X58993500Y19709600D01*
X58993500Y21010400D01*
X58982526Y21116166D01*
X58926550Y21283946D01*
X58833478Y21434348D01*
X58708303Y21559305D01*
X58643207Y21599431D01*
X58580048Y21661515D01*
X58550080Y21744854D01*
X58559239Y21832942D01*
X58610270Y21912823D01*
X58650033Y21950755D01*
X58656135Y21956576D01*
X58688208Y21999684D01*
X58788721Y22134777D01*
X58788723Y22134780D01*
X58793754Y22141542D01*
X58898240Y22347051D01*
X58966607Y22567227D01*
X58996898Y22795774D01*
X58988249Y23026158D01*
X58940907Y23251791D01*
X58893059Y23372949D01*
X58859321Y23458380D01*
X58859319Y23458384D01*
X58856224Y23466221D01*
X58851852Y23473425D01*
X58851850Y23473430D01*
X58741001Y23656103D01*
X58740998Y23656107D01*
X58736623Y23663317D01*
X58585523Y23837445D01*
X58440509Y23956350D01*
X58386237Y24026334D01*
X58367704Y24112937D01*
X58388583Y24199004D01*
X58444737Y24267489D01*
X58455549Y24275308D01*
X58482019Y24293129D01*
X58495099Y24303645D01*
X58649659Y24451090D01*
X58660793Y24463675D01*
X58788299Y24635050D01*
X58797143Y24649313D01*
X58893959Y24839734D01*
X58900272Y24855282D01*
X58963618Y25059289D01*
X58967223Y25075684D01*
X58968295Y25083774D01*
X58966496Y25103146D01*
X58965425Y25103849D01*
X58953473Y25106000D01*
X56073116Y25106000D01*
X56055265Y25101926D01*
X56055115Y25084924D01*
X56077843Y24976601D01*
X56082670Y24960513D01*
X56161127Y24761847D01*
X56168600Y24746792D01*
X56279407Y24564189D01*
X56289309Y24550609D01*
X56429305Y24389279D01*
X56441345Y24377571D01*
X56579521Y24264273D01*
X56633794Y24194287D01*
X56652326Y24107685D01*
X56631447Y24021618D01*
X56575293Y23953133D01*
X56564482Y23945315D01*
X56530681Y23922559D01*
X56363865Y23763424D01*
X56358831Y23756658D01*
X56281517Y23652744D01*
X56226246Y23578458D01*
X56121760Y23372949D01*
X56053393Y23152773D01*
X56023102Y22924226D01*
X56031751Y22693842D01*
X56079093Y22468209D01*
X56092488Y22434292D01*
X56129910Y22339534D01*
X56163776Y22253779D01*
X56168148Y22246575D01*
X56168150Y22246570D01*
X56231883Y22141542D01*
X56283377Y22056683D01*
X56288908Y22050309D01*
X56420936Y21898160D01*
X56462641Y21820031D01*
X56466316Y21731544D01*
X56431235Y21650225D01*
X56375352Y21598516D01*
X56372133Y21596524D01*
X56310652Y21558478D01*
X56185695Y21433303D01*
X56179631Y21423465D01*
X56179630Y21423464D01*
X56098951Y21292579D01*
X56092885Y21282738D01*
X56089247Y21271768D01*
X56089245Y21271765D01*
X56069641Y21212659D01*
X56037203Y21114861D01*
X56026500Y21010400D01*
X56026500Y19960898D01*
X56006793Y19874555D01*
X55968214Y19820184D01*
X54694816Y18546786D01*
X54619828Y18499667D01*
X54554102Y18488500D01*
X49967500Y18488500D01*
X49881157Y18508207D01*
X49811916Y18563426D01*
X49773489Y18643218D01*
X49768500Y18687500D01*
X49768500Y18828134D01*
X49767216Y18839959D01*
X49765881Y18852240D01*
X49761745Y18890316D01*
X49710615Y19026705D01*
X49623261Y19143261D01*
X49506705Y19230615D01*
X49370316Y19281745D01*
X49332240Y19285881D01*
X49313494Y19287918D01*
X49313489Y19287918D01*
X49308134Y19288500D01*
X47211866Y19288500D01*
X47206511Y19287918D01*
X47206506Y19287918D01*
X47187760Y19285881D01*
X47149684Y19281745D01*
X47013295Y19230615D01*
X46896739Y19143261D01*
X46809385Y19026705D01*
X46758255Y18890316D01*
X46754119Y18852240D01*
X46752785Y18839959D01*
X46751500Y18828134D01*
X46751500Y18687500D01*
X46731793Y18601157D01*
X46676574Y18531916D01*
X46596782Y18493489D01*
X46552500Y18488500D01*
X40671396Y18488500D01*
X40657862Y18488961D01*
X40602647Y18492725D01*
X40541585Y18482068D01*
X40531305Y18480550D01*
X40517350Y18478861D01*
X40481669Y18474544D01*
X40481664Y18474543D01*
X40469758Y18473102D01*
X40458537Y18468861D01*
X40451997Y18467255D01*
X40445537Y18465305D01*
X40433716Y18463242D01*
X40376937Y18438318D01*
X40367353Y18434407D01*
X40309344Y18412487D01*
X40299453Y18405689D01*
X40293487Y18402570D01*
X40287686Y18399140D01*
X40276695Y18394315D01*
X40267176Y18387010D01*
X40267175Y18387010D01*
X40227521Y18356582D01*
X40219092Y18350458D01*
X40168019Y18315357D01*
X40160038Y18306399D01*
X40127962Y18270398D01*
X40120095Y18262065D01*
X38452082Y16594052D01*
X38377094Y16546933D01*
X38294025Y16536523D01*
X38100000Y16553498D01*
X38091347Y16552741D01*
X37880565Y16534300D01*
X37880564Y16534300D01*
X37871913Y16533543D01*
X37863526Y16531296D01*
X37863522Y16531295D01*
X37664636Y16478003D01*
X37650757Y16474284D01*
X37443251Y16377523D01*
X37255700Y16246198D01*
X37093802Y16084300D01*
X36962477Y15896749D01*
X36865716Y15689243D01*
X36863466Y15680846D01*
X36819517Y15516826D01*
X36806457Y15468087D01*
X36786502Y15240000D01*
X36787259Y15231347D01*
X36804914Y15029555D01*
X36806457Y15011913D01*
X36808704Y15003526D01*
X36808705Y15003522D01*
X36857218Y14822473D01*
X36865716Y14790757D01*
X36962477Y14583251D01*
X37093802Y14395700D01*
X37255700Y14233802D01*
X37299152Y14203377D01*
X37306642Y14198132D01*
X37366066Y14132465D01*
X37391114Y14047517D01*
X37391500Y14035121D01*
X37391500Y9773898D01*
X37371793Y9687555D01*
X37333214Y9633184D01*
X36086816Y8386786D01*
X36011828Y8339667D01*
X35946102Y8328500D01*
X34397837Y8328500D01*
X34311494Y8348207D01*
X34242253Y8403426D01*
X34211500Y8457645D01*
X34182393Y8535287D01*
X34170615Y8566705D01*
X34083261Y8683261D01*
X34071918Y8691762D01*
X34061892Y8701788D01*
X34063741Y8703637D01*
X34019829Y8755432D01*
X33997540Y8841145D01*
X34014647Y8928040D01*
X34033440Y8961259D01*
X34065173Y9006578D01*
X34073824Y9021562D01*
X34155814Y9197392D01*
X34161732Y9213651D01*
X34211944Y9401044D01*
X34214949Y9418081D01*
X34231857Y9611347D01*
X34231857Y9628653D01*
X34214949Y9821919D01*
X34211944Y9838956D01*
X34161732Y10026349D01*
X34155814Y10042608D01*
X34073824Y10218438D01*
X34065174Y10233421D01*
X34048157Y10257723D01*
X34034028Y10270509D01*
X34021217Y10262007D01*
X33160714Y9401504D01*
X33085726Y9354385D01*
X32997719Y9344469D01*
X32914126Y9373720D01*
X32879286Y9401504D01*
X32020557Y10260233D01*
X32004419Y10270373D01*
X31993280Y10259776D01*
X31974826Y10233421D01*
X31966176Y10218438D01*
X31884186Y10042608D01*
X31878268Y10026349D01*
X31828056Y9838956D01*
X31825051Y9821919D01*
X31808143Y9628653D01*
X31808143Y9611347D01*
X26108500Y9611347D01*
X26108500Y9784102D01*
X26128207Y9870445D01*
X26166786Y9924816D01*
X26875998Y10634028D01*
X32369491Y10634028D01*
X32377993Y10621217D01*
X33004145Y9995065D01*
X33020620Y9984713D01*
X33028131Y9987341D01*
X33660233Y10619443D01*
X33670373Y10635581D01*
X33659776Y10646720D01*
X33633421Y10665174D01*
X33618438Y10673824D01*
X33442608Y10755814D01*
X33426349Y10761732D01*
X33238956Y10811944D01*
X33221919Y10814949D01*
X33028653Y10831857D01*
X33011347Y10831857D01*
X32818081Y10814949D01*
X32801044Y10811944D01*
X32613651Y10761732D01*
X32597392Y10755814D01*
X32421562Y10673824D01*
X32406579Y10665174D01*
X32382277Y10648157D01*
X32369491Y10634028D01*
X26875998Y10634028D01*
X30215184Y13973214D01*
X30290172Y14020333D01*
X30355898Y14031500D01*
X31228134Y14031500D01*
X31233489Y14032082D01*
X31233494Y14032082D01*
X31252240Y14034119D01*
X31290316Y14038255D01*
X31426705Y14089385D01*
X31543261Y14176739D01*
X31630615Y14293295D01*
X31681745Y14429684D01*
X31688500Y14491866D01*
X31688500Y15988134D01*
X31681745Y16050316D01*
X31630615Y16186705D01*
X31543261Y16303261D01*
X31531918Y16311762D01*
X31521892Y16321788D01*
X31523741Y16323637D01*
X31479829Y16375432D01*
X31457540Y16461145D01*
X31474647Y16548040D01*
X31493440Y16581259D01*
X31525173Y16626578D01*
X31533824Y16641562D01*
X31615814Y16817392D01*
X31621732Y16833651D01*
X31671944Y17021044D01*
X31674949Y17038081D01*
X31691857Y17231347D01*
X31691857Y17248653D01*
X31674949Y17441919D01*
X31671944Y17458956D01*
X31621732Y17646349D01*
X31615814Y17662608D01*
X31533824Y17838438D01*
X31525174Y17853421D01*
X31508157Y17877723D01*
X31494028Y17890509D01*
X31481217Y17882007D01*
X30620714Y17021504D01*
X30545726Y16974385D01*
X30457719Y16964469D01*
X30374126Y16993720D01*
X30339286Y17021504D01*
X29480557Y17880233D01*
X29464419Y17890373D01*
X29453280Y17879776D01*
X29434826Y17853421D01*
X29426176Y17838438D01*
X29344186Y17662608D01*
X29338268Y17646349D01*
X29288056Y17458956D01*
X29285051Y17441919D01*
X29268143Y17248653D01*
X29268143Y17231347D01*
X29285051Y17038081D01*
X29288056Y17021044D01*
X29338268Y16833651D01*
X29344186Y16817392D01*
X29426176Y16641562D01*
X29434827Y16626578D01*
X29466560Y16581259D01*
X29499942Y16499228D01*
X29494426Y16410836D01*
X29451104Y16333592D01*
X29437608Y16321288D01*
X29428082Y16311762D01*
X29416739Y16303261D01*
X29329385Y16186705D01*
X29278255Y16050316D01*
X29271500Y15988134D01*
X29271500Y15115898D01*
X29251793Y15029555D01*
X29213214Y14975184D01*
X24921231Y10683201D01*
X24911335Y10673956D01*
X24869615Y10637561D01*
X24862717Y10627746D01*
X24862715Y10627744D01*
X24833972Y10586847D01*
X24827762Y10578485D01*
X24789524Y10529718D01*
X24784588Y10518785D01*
X24781094Y10513016D01*
X24777910Y10507078D01*
X24771010Y10497261D01*
X24766653Y10486085D01*
X24766650Y10486080D01*
X24748493Y10439510D01*
X24744456Y10429906D01*
X24740186Y10420448D01*
X24718955Y10373427D01*
X24716768Y10361631D01*
X24714755Y10355207D01*
X24713077Y10348671D01*
X24708718Y10337491D01*
X24707153Y10325602D01*
X24707152Y10325599D01*
X24700628Y10276040D01*
X24698997Y10265746D01*
X24690808Y10221560D01*
X24687704Y10204814D01*
X24688394Y10192844D01*
X24688394Y10192841D01*
X24691170Y10144707D01*
X24691500Y10133251D01*
X24691500Y7995898D01*
X24671793Y7909555D01*
X24633214Y7855184D01*
X21844816Y5066786D01*
X21769828Y5019667D01*
X21704102Y5008500D01*
X16158840Y5008500D01*
X16072497Y5028207D01*
X16003256Y5083426D01*
X15995829Y5093358D01*
X15987735Y5104918D01*
X15987732Y5104922D01*
X15982749Y5112038D01*
X15827038Y5267749D01*
X15646654Y5394056D01*
X15638867Y5397687D01*
X15573973Y5457901D01*
X15541618Y5540343D01*
X15548238Y5628659D01*
X15592520Y5705356D01*
X15638856Y5742308D01*
X15646654Y5745944D01*
X15827038Y5872251D01*
X15982749Y6027962D01*
X16109056Y6208347D01*
X16202120Y6407924D01*
X16204367Y6416309D01*
X16204369Y6416315D01*
X16245035Y6568082D01*
X16259115Y6620629D01*
X16265942Y6698657D01*
X16277550Y6831347D01*
X16278307Y6840000D01*
X16270192Y6932754D01*
X16259872Y7050722D01*
X16259871Y7050726D01*
X16259115Y7059371D01*
X16221027Y7201515D01*
X16204369Y7263685D01*
X16204367Y7263691D01*
X16202120Y7272076D01*
X16109056Y7471653D01*
X15982749Y7652038D01*
X15827038Y7807749D01*
X15646654Y7934056D01*
X15447076Y8027120D01*
X15438688Y8029367D01*
X15438687Y8029368D01*
X15379799Y8045147D01*
X15234371Y8084115D01*
X15225726Y8084871D01*
X15225722Y8084872D01*
X15023653Y8102550D01*
X15015000Y8103307D01*
X15006347Y8102550D01*
X14804278Y8084872D01*
X14804274Y8084871D01*
X14795629Y8084115D01*
X14708263Y8060705D01*
X14591315Y8029369D01*
X14591309Y8029367D01*
X14582924Y8027120D01*
X14383347Y7934056D01*
X14202962Y7807749D01*
X14047251Y7652038D01*
X13920944Y7471653D01*
X13917313Y7463866D01*
X13857102Y7398973D01*
X13774661Y7366617D01*
X13686345Y7373235D01*
X13609647Y7417516D01*
X13572693Y7463854D01*
X13569056Y7471653D01*
X13442749Y7652038D01*
X13287038Y7807749D01*
X13106654Y7934056D01*
X12907076Y8027120D01*
X12898688Y8029367D01*
X12898687Y8029368D01*
X12839799Y8045147D01*
X12694371Y8084115D01*
X12685726Y8084871D01*
X12685722Y8084872D01*
X12483653Y8102550D01*
X12475000Y8103307D01*
X12466347Y8102550D01*
X12264278Y8084872D01*
X12264274Y8084871D01*
X12255629Y8084115D01*
X12168263Y8060705D01*
X12051315Y8029369D01*
X12051309Y8029367D01*
X12042924Y8027120D01*
X11843347Y7934056D01*
X11662962Y7807749D01*
X11507251Y7652038D01*
X11380944Y7471653D01*
X11377313Y7463866D01*
X11317102Y7398973D01*
X11234661Y7366617D01*
X11146345Y7373235D01*
X11069647Y7417516D01*
X11032693Y7463854D01*
X11029056Y7471653D01*
X10902749Y7652038D01*
X10747038Y7807749D01*
X10739162Y7813264D01*
X10728356Y7820831D01*
X10668932Y7886500D01*
X10643886Y7971448D01*
X10643500Y7983841D01*
X10643500Y9559102D01*
X10663207Y9645445D01*
X10701786Y9699816D01*
X16241970Y15240000D01*
X19006502Y15240000D01*
X19007259Y15231347D01*
X19024914Y15029555D01*
X19026457Y15011913D01*
X19028704Y15003526D01*
X19028705Y15003522D01*
X19077218Y14822473D01*
X19085716Y14790757D01*
X19182477Y14583251D01*
X19313802Y14395700D01*
X19475700Y14233802D01*
X19663251Y14102477D01*
X19870757Y14005716D01*
X19879154Y14003466D01*
X20083522Y13948705D01*
X20083526Y13948704D01*
X20091913Y13946457D01*
X20100564Y13945700D01*
X20100565Y13945700D01*
X20311347Y13927259D01*
X20320000Y13926502D01*
X20328653Y13927259D01*
X20539435Y13945700D01*
X20539436Y13945700D01*
X20548087Y13946457D01*
X20556474Y13948704D01*
X20556478Y13948705D01*
X20760846Y14003466D01*
X20769243Y14005716D01*
X20976749Y14102477D01*
X21164300Y14233802D01*
X21326198Y14395700D01*
X21457523Y14583251D01*
X21554284Y14790757D01*
X21562782Y14822473D01*
X21611295Y15003522D01*
X21611296Y15003526D01*
X21613543Y15011913D01*
X21615087Y15029555D01*
X21632741Y15231347D01*
X21633498Y15240000D01*
X24046502Y15240000D01*
X24047259Y15231347D01*
X24064914Y15029555D01*
X24066457Y15011913D01*
X24068704Y15003526D01*
X24068705Y15003522D01*
X24117218Y14822473D01*
X24125716Y14790757D01*
X24222477Y14583251D01*
X24353802Y14395700D01*
X24515700Y14233802D01*
X24703251Y14102477D01*
X24910757Y14005716D01*
X24919154Y14003466D01*
X25123522Y13948705D01*
X25123526Y13948704D01*
X25131913Y13946457D01*
X25140564Y13945700D01*
X25140565Y13945700D01*
X25351347Y13927259D01*
X25360000Y13926502D01*
X25368653Y13927259D01*
X25579435Y13945700D01*
X25579436Y13945700D01*
X25588087Y13946457D01*
X25596474Y13948704D01*
X25596478Y13948705D01*
X25800846Y14003466D01*
X25809243Y14005716D01*
X26016749Y14102477D01*
X26204300Y14233802D01*
X26366198Y14395700D01*
X26497523Y14583251D01*
X26594284Y14790757D01*
X26602782Y14822473D01*
X26651295Y15003522D01*
X26651296Y15003526D01*
X26653543Y15011913D01*
X26655087Y15029555D01*
X26672741Y15231347D01*
X26673498Y15240000D01*
X26653543Y15468087D01*
X26640484Y15516826D01*
X26596534Y15680846D01*
X26594284Y15689243D01*
X26497523Y15896749D01*
X26366198Y16084300D01*
X26204300Y16246198D01*
X26088349Y16327388D01*
X26028925Y16393055D01*
X26003877Y16478003D01*
X26018168Y16565406D01*
X26054938Y16623925D01*
X26082310Y16654172D01*
X26073807Y16666983D01*
X25375855Y17364935D01*
X25359380Y17375287D01*
X25351869Y17372659D01*
X24647966Y16668756D01*
X24637826Y16652618D01*
X24661674Y16627550D01*
X24706907Y16551410D01*
X24714626Y16463184D01*
X24683299Y16380346D01*
X24631636Y16327378D01*
X24522820Y16251184D01*
X24522819Y16251183D01*
X24515700Y16246198D01*
X24353802Y16084300D01*
X24222477Y15896749D01*
X24125716Y15689243D01*
X24123466Y15680846D01*
X24079517Y15516826D01*
X24066457Y15468087D01*
X24046502Y15240000D01*
X21633498Y15240000D01*
X21613543Y15468087D01*
X21600484Y15516826D01*
X21556534Y15680846D01*
X21554284Y15689243D01*
X21457523Y15896749D01*
X21326198Y16084300D01*
X21164300Y16246198D01*
X20976749Y16377523D01*
X20769243Y16474284D01*
X20755364Y16478003D01*
X20556478Y16531295D01*
X20556474Y16531296D01*
X20548087Y16533543D01*
X20539436Y16534300D01*
X20539435Y16534300D01*
X20328653Y16552741D01*
X20320000Y16553498D01*
X20311347Y16552741D01*
X20100565Y16534300D01*
X20100564Y16534300D01*
X20091913Y16533543D01*
X20083526Y16531296D01*
X20083522Y16531295D01*
X19884636Y16478003D01*
X19870757Y16474284D01*
X19663251Y16377523D01*
X19475700Y16246198D01*
X19313802Y16084300D01*
X19182477Y15896749D01*
X19085716Y15689243D01*
X19083466Y15680846D01*
X19039517Y15516826D01*
X19026457Y15468087D01*
X19006502Y15240000D01*
X16241970Y15240000D01*
X18733317Y17731347D01*
X24047761Y17731347D01*
X24066194Y17520652D01*
X24069199Y17503610D01*
X24123937Y17299326D01*
X24129861Y17283050D01*
X24219238Y17091382D01*
X24227898Y17076381D01*
X24260041Y17030476D01*
X24274171Y17017690D01*
X24286983Y17026193D01*
X24984935Y17724145D01*
X24994508Y17739380D01*
X25724713Y17739380D01*
X25727341Y17731869D01*
X26431244Y17027966D01*
X26447382Y17017826D01*
X26458521Y17028423D01*
X26492102Y17076381D01*
X26500762Y17091382D01*
X26590139Y17283050D01*
X26596063Y17299326D01*
X26650801Y17503610D01*
X26653806Y17520652D01*
X26672239Y17731347D01*
X26672239Y17748653D01*
X26653806Y17959348D01*
X26650801Y17976390D01*
X26596063Y18180674D01*
X26590139Y18196950D01*
X26563523Y18254028D01*
X29829491Y18254028D01*
X29837993Y18241217D01*
X30464145Y17615065D01*
X30480620Y17604713D01*
X30488131Y17607341D01*
X31120233Y18239443D01*
X31130373Y18255581D01*
X31119776Y18266720D01*
X31093421Y18285174D01*
X31078438Y18293824D01*
X30902608Y18375814D01*
X30886349Y18381732D01*
X30698956Y18431944D01*
X30681919Y18434949D01*
X30488653Y18451857D01*
X30471347Y18451857D01*
X30278081Y18434949D01*
X30261044Y18431944D01*
X30073651Y18381732D01*
X30057392Y18375814D01*
X29881562Y18293824D01*
X29866579Y18285174D01*
X29842277Y18268157D01*
X29829491Y18254028D01*
X26563523Y18254028D01*
X26500762Y18388618D01*
X26492102Y18403619D01*
X26459959Y18449524D01*
X26445829Y18462310D01*
X26433017Y18453807D01*
X25735065Y17755855D01*
X25724713Y17739380D01*
X24994508Y17739380D01*
X24995287Y17740620D01*
X24992659Y17748131D01*
X24288756Y18452034D01*
X24272618Y18462174D01*
X24261479Y18451577D01*
X24227898Y18403619D01*
X24219238Y18388618D01*
X24129861Y18196950D01*
X24123937Y18180674D01*
X24069199Y17976390D01*
X24066194Y17959348D01*
X24047761Y17748653D01*
X24047761Y17731347D01*
X18733317Y17731347D01*
X19827799Y18825829D01*
X24637690Y18825829D01*
X24646193Y18813017D01*
X25344145Y18115065D01*
X25360620Y18104713D01*
X25368131Y18107341D01*
X26072034Y18811244D01*
X26082174Y18827382D01*
X26071577Y18838521D01*
X26023619Y18872102D01*
X26008618Y18880762D01*
X25816950Y18970139D01*
X25800674Y18976063D01*
X25596390Y19030801D01*
X25579348Y19033806D01*
X25368653Y19052239D01*
X25351347Y19052239D01*
X25140652Y19033806D01*
X25123610Y19030801D01*
X24919326Y18976063D01*
X24903050Y18970139D01*
X24711382Y18880762D01*
X24696381Y18872102D01*
X24650476Y18839959D01*
X24637690Y18825829D01*
X19827799Y18825829D01*
X20798769Y19796799D01*
X20808665Y19806044D01*
X20841342Y19834550D01*
X20841343Y19834551D01*
X20850385Y19842439D01*
X20886021Y19893144D01*
X20892224Y19901496D01*
X20923071Y19940836D01*
X20923074Y19940840D01*
X20930477Y19950282D01*
X20935414Y19961216D01*
X20938905Y19966980D01*
X20942092Y19972924D01*
X20948990Y19982739D01*
X20971507Y20040490D01*
X20975543Y20050092D01*
X20991461Y20085347D01*
X21001045Y20106573D01*
X21003231Y20118366D01*
X21005245Y20124792D01*
X21006924Y20131331D01*
X21011282Y20142509D01*
X21012847Y20154395D01*
X21012848Y20154400D01*
X21019371Y20203955D01*
X21021002Y20214250D01*
X21030110Y20263391D01*
X21030110Y20263394D01*
X21032296Y20275187D01*
X21028830Y20335294D01*
X21028500Y20346750D01*
X21028500Y20347850D01*
X47392599Y20347850D01*
X47405708Y20334887D01*
X47566602Y20236290D01*
X47580485Y20229216D01*
X47785343Y20144362D01*
X47800155Y20139549D01*
X48015770Y20087784D01*
X48031156Y20085347D01*
X48252211Y20067950D01*
X48267789Y20067950D01*
X48488844Y20085347D01*
X48504230Y20087784D01*
X48719845Y20139549D01*
X48734657Y20144362D01*
X48939515Y20229216D01*
X48953398Y20236290D01*
X49114774Y20335182D01*
X49127358Y20347487D01*
X49117635Y20363155D01*
X48275855Y21204935D01*
X48259380Y21215287D01*
X48251869Y21212659D01*
X47401963Y20362753D01*
X47392599Y20347850D01*
X21028500Y20347850D01*
X21028500Y21572211D01*
X46747950Y21572211D01*
X46765347Y21351156D01*
X46767784Y21335770D01*
X46819549Y21120155D01*
X46824362Y21105343D01*
X46909216Y20900485D01*
X46916290Y20886602D01*
X47015182Y20725226D01*
X47027487Y20712642D01*
X47043155Y20722365D01*
X47884935Y21564145D01*
X47894508Y21579380D01*
X48624713Y21579380D01*
X48627341Y21571869D01*
X49477247Y20721963D01*
X49492150Y20712599D01*
X49505113Y20725708D01*
X49603710Y20886602D01*
X49610784Y20900485D01*
X49695638Y21105343D01*
X49700451Y21120155D01*
X49752216Y21335770D01*
X49754653Y21351156D01*
X49772050Y21572211D01*
X49772050Y21587789D01*
X49754653Y21808844D01*
X49752216Y21824230D01*
X49700451Y22039845D01*
X49695638Y22054657D01*
X49610784Y22259515D01*
X49603710Y22273398D01*
X49504818Y22434774D01*
X49492513Y22447358D01*
X49476845Y22437635D01*
X48635065Y21595855D01*
X48624713Y21579380D01*
X47894508Y21579380D01*
X47895287Y21580620D01*
X47892659Y21588131D01*
X47042753Y22438037D01*
X47027850Y22447401D01*
X47014887Y22434292D01*
X46916290Y22273398D01*
X46909216Y22259515D01*
X46824362Y22054657D01*
X46819549Y22039845D01*
X46767784Y21824230D01*
X46765347Y21808844D01*
X46747950Y21587789D01*
X46747950Y21572211D01*
X21028500Y21572211D01*
X21028500Y22061866D01*
X26906500Y22061866D01*
X26913255Y21999684D01*
X26964385Y21863295D01*
X27051739Y21746739D01*
X27168295Y21659385D01*
X27304684Y21608255D01*
X27342760Y21604119D01*
X27361506Y21602082D01*
X27361511Y21602082D01*
X27366866Y21601500D01*
X28513134Y21601500D01*
X28518489Y21602082D01*
X28518494Y21602082D01*
X28537240Y21604119D01*
X28575316Y21608255D01*
X28711705Y21659385D01*
X28712775Y21656531D01*
X28776243Y21674544D01*
X28845459Y21665914D01*
X29001180Y21617710D01*
X29149870Y21602082D01*
X29193073Y21597541D01*
X29193074Y21597541D01*
X29202750Y21596524D01*
X29404596Y21614894D01*
X29563000Y21661515D01*
X29589686Y21669369D01*
X29589688Y21669370D01*
X29599029Y21672119D01*
X29753757Y21753008D01*
X29839401Y21775544D01*
X29926346Y21758689D01*
X29940593Y21751705D01*
X30077565Y21677644D01*
X30271180Y21617710D01*
X30419870Y21602082D01*
X30463073Y21597541D01*
X30463074Y21597541D01*
X30472750Y21596524D01*
X30674596Y21614894D01*
X30833000Y21661515D01*
X30859686Y21669369D01*
X30859688Y21669370D01*
X30869029Y21672119D01*
X30991943Y21736376D01*
X31040015Y21761507D01*
X31040018Y21761509D01*
X31048645Y21766019D01*
X31206601Y21893019D01*
X31223219Y21912823D01*
X31258664Y21955065D01*
X31336881Y22048281D01*
X31434523Y22225891D01*
X31495807Y22419084D01*
X31498984Y22447401D01*
X31512880Y22571294D01*
X31513500Y22576817D01*
X31513500Y22812513D01*
X47392642Y22812513D01*
X47402365Y22796845D01*
X48244145Y21955065D01*
X48260620Y21944713D01*
X48268131Y21947341D01*
X49118037Y22797247D01*
X49127401Y22812150D01*
X49114292Y22825113D01*
X48953398Y22923710D01*
X48939515Y22930784D01*
X48734657Y23015638D01*
X48719845Y23020451D01*
X48504230Y23072216D01*
X48488844Y23074653D01*
X48267789Y23092050D01*
X48252211Y23092050D01*
X48031156Y23074653D01*
X48015770Y23072216D01*
X47800155Y23020451D01*
X47785343Y23015638D01*
X47580485Y22930784D01*
X47566602Y22923710D01*
X47405226Y22824818D01*
X47392642Y22812513D01*
X31513500Y22812513D01*
X31513500Y23136004D01*
X31498723Y23286713D01*
X31440142Y23480742D01*
X31384589Y23585223D01*
X31349560Y23651104D01*
X31349557Y23651108D01*
X31344990Y23659698D01*
X31216890Y23816763D01*
X31115259Y23900839D01*
X31068218Y23939755D01*
X31068217Y23939756D01*
X31060722Y23945956D01*
X30882435Y24042356D01*
X30688820Y24102290D01*
X30532367Y24118734D01*
X30496927Y24122459D01*
X30496926Y24122459D01*
X30487250Y24123476D01*
X30285404Y24105106D01*
X30151144Y24065591D01*
X30100314Y24050631D01*
X30100312Y24050630D01*
X30090971Y24047881D01*
X29936243Y23966992D01*
X29850599Y23944456D01*
X29763654Y23961311D01*
X29749407Y23968295D01*
X29612435Y24042356D01*
X29418820Y24102290D01*
X29262367Y24118734D01*
X29226927Y24122459D01*
X29226926Y24122459D01*
X29217250Y24123476D01*
X29015404Y24105106D01*
X28895387Y24069783D01*
X28841584Y24053948D01*
X28753190Y24048475D01*
X28712418Y24062518D01*
X28711705Y24060615D01*
X28575316Y24111745D01*
X28537240Y24115881D01*
X28518494Y24117918D01*
X28518489Y24117918D01*
X28513134Y24118500D01*
X27366866Y24118500D01*
X27361511Y24117918D01*
X27361506Y24117918D01*
X27342760Y24115881D01*
X27304684Y24111745D01*
X27168295Y24060615D01*
X27051739Y23973261D01*
X26964385Y23856705D01*
X26913255Y23720316D01*
X26906500Y23658134D01*
X26906500Y22061866D01*
X21028500Y22061866D01*
X21028500Y24195121D01*
X21048207Y24281464D01*
X21103426Y24350705D01*
X21113358Y24358132D01*
X21120848Y24363377D01*
X21164300Y24393802D01*
X21326198Y24555700D01*
X21457523Y24743251D01*
X21554284Y24950757D01*
X21583365Y25059289D01*
X21611295Y25163522D01*
X21611296Y25163526D01*
X21613543Y25171913D01*
X21633498Y25400000D01*
X36786502Y25400000D01*
X36806457Y25171913D01*
X36808704Y25163526D01*
X36808705Y25163522D01*
X36836635Y25059289D01*
X36865716Y24950757D01*
X36962477Y24743251D01*
X37093802Y24555700D01*
X37255700Y24393802D01*
X37306642Y24358132D01*
X37399476Y24293129D01*
X37443251Y24262477D01*
X37650757Y24165716D01*
X37659154Y24163466D01*
X37863522Y24108705D01*
X37863526Y24108704D01*
X37871913Y24106457D01*
X37880564Y24105700D01*
X37880565Y24105700D01*
X38091347Y24087259D01*
X38100000Y24086502D01*
X38108653Y24087259D01*
X38319435Y24105700D01*
X38319436Y24105700D01*
X38328087Y24106457D01*
X38336474Y24108704D01*
X38336478Y24108705D01*
X38540846Y24163466D01*
X38549243Y24165716D01*
X38756749Y24262477D01*
X38800525Y24293129D01*
X38893358Y24358132D01*
X38944300Y24393802D01*
X39106198Y24555700D01*
X39237523Y24743251D01*
X39334284Y24950757D01*
X39363365Y25059289D01*
X39391295Y25163522D01*
X39391296Y25163526D01*
X39393543Y25171913D01*
X39413498Y25400000D01*
X39393543Y25628087D01*
X39391362Y25636226D01*
X56051705Y25636226D01*
X56053504Y25616854D01*
X56054575Y25616151D01*
X56066527Y25614000D01*
X57233577Y25614000D01*
X57252547Y25618330D01*
X57256000Y25625500D01*
X57256000Y25636423D01*
X57764000Y25636423D01*
X57768330Y25617453D01*
X57775500Y25614000D01*
X58946884Y25614000D01*
X58964735Y25618074D01*
X58964885Y25635076D01*
X58942157Y25743399D01*
X58937330Y25759487D01*
X58858873Y25958153D01*
X58851400Y25973208D01*
X58740593Y26155811D01*
X58730691Y26169391D01*
X58590695Y26330721D01*
X58578655Y26342429D01*
X58413477Y26477867D01*
X58399640Y26487377D01*
X58213997Y26593051D01*
X58198755Y26600094D01*
X57997963Y26672978D01*
X57981753Y26677351D01*
X57786065Y26712737D01*
X57767123Y26711874D01*
X57764000Y26696595D01*
X57764000Y25636423D01*
X57256000Y25636423D01*
X57256000Y26689541D01*
X57251670Y26708511D01*
X57248321Y26710124D01*
X57240645Y26710661D01*
X57163759Y26704137D01*
X57147212Y26701309D01*
X56940451Y26647645D01*
X56924608Y26642066D01*
X56729854Y26554335D01*
X56715181Y26546168D01*
X56537982Y26426872D01*
X56524901Y26416355D01*
X56370341Y26268910D01*
X56359207Y26256325D01*
X56231701Y26084950D01*
X56222857Y26070687D01*
X56126041Y25880266D01*
X56119728Y25864718D01*
X56056382Y25660711D01*
X56052777Y25644316D01*
X56051705Y25636226D01*
X39391362Y25636226D01*
X39389195Y25644316D01*
X39336534Y25840846D01*
X39334284Y25849243D01*
X39237523Y26056749D01*
X39227764Y26070687D01*
X39111183Y26237180D01*
X39106198Y26244300D01*
X38944300Y26406198D01*
X38756749Y26537523D01*
X38549243Y26634284D01*
X38540846Y26636534D01*
X38336478Y26691295D01*
X38336474Y26691296D01*
X38328087Y26693543D01*
X38319436Y26694300D01*
X38319435Y26694300D01*
X38108653Y26712741D01*
X38100000Y26713498D01*
X38091347Y26712741D01*
X37880565Y26694300D01*
X37880564Y26694300D01*
X37871913Y26693543D01*
X37863526Y26691296D01*
X37863522Y26691295D01*
X37659154Y26636534D01*
X37650757Y26634284D01*
X37443251Y26537523D01*
X37255700Y26406198D01*
X37093802Y26244300D01*
X37088817Y26237180D01*
X36972237Y26070687D01*
X36962477Y26056749D01*
X36865716Y25849243D01*
X36863466Y25840846D01*
X36810806Y25644316D01*
X36806457Y25628087D01*
X36786502Y25400000D01*
X21633498Y25400000D01*
X21613543Y25628087D01*
X21609195Y25644316D01*
X21556534Y25840846D01*
X21554284Y25849243D01*
X21457523Y26056749D01*
X21447764Y26070687D01*
X21331183Y26237180D01*
X21326198Y26244300D01*
X21164300Y26406198D01*
X20976749Y26537523D01*
X20769243Y26634284D01*
X20760846Y26636534D01*
X20556478Y26691295D01*
X20556474Y26691296D01*
X20548087Y26693543D01*
X20539436Y26694300D01*
X20539435Y26694300D01*
X20328653Y26712741D01*
X20320000Y26713498D01*
X20311347Y26712741D01*
X20100565Y26694300D01*
X20100564Y26694300D01*
X20091913Y26693543D01*
X20083526Y26691296D01*
X20083522Y26691295D01*
X19879154Y26636534D01*
X19870757Y26634284D01*
X19663251Y26537523D01*
X19475700Y26406198D01*
X19313802Y26244300D01*
X19308817Y26237180D01*
X19192237Y26070687D01*
X19182477Y26056749D01*
X19085716Y25849243D01*
X19083466Y25840846D01*
X19030806Y25644316D01*
X19026457Y25628087D01*
X19006502Y25400000D01*
X19026457Y25171913D01*
X19028704Y25163526D01*
X19028705Y25163522D01*
X19056635Y25059289D01*
X19085716Y24950757D01*
X19182477Y24743251D01*
X19313802Y24555700D01*
X19475700Y24393802D01*
X19519152Y24363377D01*
X19526642Y24358132D01*
X19586066Y24292465D01*
X19611114Y24207517D01*
X19611500Y24195121D01*
X19611500Y20695898D01*
X19591793Y20609555D01*
X19553214Y20555184D01*
X9456231Y10458201D01*
X9446335Y10448956D01*
X9439534Y10443023D01*
X9404615Y10412561D01*
X9397717Y10402746D01*
X9397715Y10402744D01*
X9368972Y10361847D01*
X9362762Y10353485D01*
X9324524Y10304718D01*
X9319588Y10293785D01*
X9316094Y10288016D01*
X9312910Y10282078D01*
X9306010Y10272261D01*
X9301653Y10261085D01*
X9301650Y10261080D01*
X9283493Y10214510D01*
X9279456Y10204906D01*
X9274009Y10192841D01*
X9253955Y10148427D01*
X9251768Y10136631D01*
X9249755Y10130207D01*
X9248077Y10123671D01*
X9243718Y10112491D01*
X9242153Y10100602D01*
X9242152Y10100599D01*
X9235628Y10051040D01*
X9233997Y10040746D01*
X9225531Y9995065D01*
X9222704Y9979814D01*
X9223394Y9967844D01*
X9223394Y9967841D01*
X9226170Y9919707D01*
X9226500Y9908251D01*
X9226500Y7983840D01*
X9206793Y7897497D01*
X9151574Y7828256D01*
X9141642Y7820829D01*
X9130082Y7812735D01*
X9130081Y7812734D01*
X9122962Y7807749D01*
X8967251Y7652038D01*
X8965439Y7653850D01*
X8906722Y7609356D01*
X8819918Y7591791D01*
X8734089Y7613628D01*
X8666235Y7670543D01*
X8638505Y7720875D01*
X8600150Y7823185D01*
X8586672Y7847804D01*
X8516405Y7941561D01*
X8496561Y7961405D01*
X8402804Y8031672D01*
X8378191Y8045147D01*
X8266887Y8086873D01*
X8242804Y8092599D01*
X8198449Y8097418D01*
X8187699Y8098000D01*
X7671423Y8098000D01*
X7652453Y8093670D01*
X7649000Y8086500D01*
X7649000Y6785000D01*
X7629293Y6698657D01*
X7574074Y6629416D01*
X7494282Y6590989D01*
X7450000Y6586000D01*
X6159424Y6586000D01*
X6140454Y6581670D01*
X6137001Y6574500D01*
X6137001Y6047304D01*
X6137584Y6036547D01*
X6142400Y5992201D01*
X6148128Y5968110D01*
X6189853Y5856809D01*
X6203328Y5832196D01*
X6273595Y5738439D01*
X6293439Y5718595D01*
X6387196Y5648328D01*
X6411815Y5634850D01*
X6514125Y5596495D01*
X6588056Y5547733D01*
X6633508Y5471723D01*
X6641479Y5383519D01*
X6610390Y5300592D01*
X6581988Y5268723D01*
X6582962Y5267749D01*
X6427251Y5112038D01*
X6300944Y4931653D01*
X6207880Y4732076D01*
X6205633Y4723691D01*
X6205631Y4723685D01*
X6174295Y4606737D01*
X6150885Y4519371D01*
X6131693Y4300000D01*
X508500Y4300000D01*
X508500Y7116423D01*
X6137000Y7116423D01*
X6141330Y7097453D01*
X6148500Y7094000D01*
X7118577Y7094000D01*
X7137547Y7098330D01*
X7141000Y7105500D01*
X7141000Y8075576D01*
X7136670Y8094546D01*
X7129500Y8097999D01*
X6602304Y8097999D01*
X6591547Y8097416D01*
X6547201Y8092600D01*
X6523110Y8086872D01*
X6411809Y8045147D01*
X6387196Y8031672D01*
X6293439Y7961405D01*
X6273595Y7941561D01*
X6203328Y7847804D01*
X6189853Y7823191D01*
X6148127Y7711887D01*
X6142401Y7687804D01*
X6137582Y7643449D01*
X6137000Y7632699D01*
X6137000Y7116423D01*
X508500Y7116423D01*
X508500Y16256000D01*
X7022526Y16256000D01*
X7042391Y16003597D01*
X7044216Y15995996D01*
X7044216Y15995995D01*
X7069935Y15888869D01*
X7101495Y15757409D01*
X7198384Y15523498D01*
X7330672Y15307624D01*
X7335748Y15301681D01*
X7335750Y15301678D01*
X7395819Y15231347D01*
X7495102Y15115102D01*
X7687624Y14950672D01*
X7903498Y14818384D01*
X8137409Y14721495D01*
X8145008Y14719671D01*
X8145013Y14719669D01*
X8375995Y14664216D01*
X8383597Y14662391D01*
X8471330Y14655486D01*
X8568909Y14647806D01*
X8568917Y14647806D01*
X8572801Y14647500D01*
X8699199Y14647500D01*
X8703083Y14647806D01*
X8703091Y14647806D01*
X8800670Y14655486D01*
X8888403Y14662391D01*
X8896005Y14664216D01*
X9126987Y14719669D01*
X9126992Y14719671D01*
X9134591Y14721495D01*
X9368502Y14818384D01*
X9584376Y14950672D01*
X9776898Y15115102D01*
X9876181Y15231347D01*
X9936250Y15301678D01*
X9936252Y15301681D01*
X9941328Y15307624D01*
X10073616Y15523498D01*
X10170505Y15757409D01*
X10202066Y15888869D01*
X10227784Y15995995D01*
X10227784Y15995996D01*
X10229609Y16003597D01*
X10249474Y16256000D01*
X10229609Y16508403D01*
X10223633Y16533295D01*
X10172331Y16746987D01*
X10172329Y16746992D01*
X10170505Y16754591D01*
X10073616Y16988502D01*
X9941328Y17204376D01*
X9918293Y17231347D01*
X9781973Y17390956D01*
X9776898Y17396898D01*
X9770956Y17401973D01*
X9590322Y17556250D01*
X9590319Y17556252D01*
X9584376Y17561328D01*
X9368502Y17693616D01*
X9134591Y17790505D01*
X9126992Y17792329D01*
X9126987Y17792331D01*
X8896005Y17847784D01*
X8896004Y17847784D01*
X8888403Y17849609D01*
X8800670Y17856514D01*
X8703091Y17864194D01*
X8703083Y17864194D01*
X8699199Y17864500D01*
X8572801Y17864500D01*
X8568917Y17864194D01*
X8568909Y17864194D01*
X8471330Y17856514D01*
X8383597Y17849609D01*
X8375996Y17847784D01*
X8375995Y17847784D01*
X8145013Y17792331D01*
X8145008Y17792329D01*
X8137409Y17790505D01*
X7903498Y17693616D01*
X7687624Y17561328D01*
X7681681Y17556252D01*
X7681678Y17556250D01*
X7501044Y17401973D01*
X7495102Y17396898D01*
X7490027Y17390956D01*
X7353708Y17231347D01*
X7330672Y17204376D01*
X7198384Y16988502D01*
X7101495Y16754591D01*
X7099671Y16746992D01*
X7099669Y16746987D01*
X7048367Y16533295D01*
X7042391Y16508403D01*
X7022526Y16256000D01*
X508500Y16256000D01*
X508500Y29772500D01*
X528207Y29858843D01*
X583426Y29928084D01*
X663218Y29966511D01*
X707500Y29971500D01*
X67872500Y29971500D01*
X67958843Y29951793D01*
G37*
%TD.AperFunction*%
%TD*%
M02*
